<mxfile host="Electron" modified="2023-10-22T18:22:23.667Z" agent="Mozilla/5.0 (Windows NT 10.0; Win64; x64) AppleWebKit/537.36 (KHTML, like Gecko) draw.io/21.6.8 Chrome/114.0.5735.289 Electron/25.5.0 Safari/537.36" etag="NWDIETEGN3lb-JVL83iS" version="21.6.8" type="device">
  <diagram id="R2lEEEUBdFMjLlhIrx00" name="Page-1">
    <mxGraphModel dx="5420" dy="3283" grid="1" gridSize="10" guides="1" tooltips="1" connect="1" arrows="1" fold="1" page="1" pageScale="1" pageWidth="850" pageHeight="1400" math="0" shadow="0" extFonts="Permanent Marker^https://fonts.googleapis.com/css?family=Permanent+Marker">
      <root>
        <mxCell id="0" />
        <mxCell id="1" parent="0" />
        <mxCell id="cp8nzbBQbhLiMNm4tQ7m-3" value="Owns" style="shape=rhombus;perimeter=rhombusPerimeter;whiteSpace=wrap;html=1;align=center;fillColor=#d5e8d4;strokeColor=#82b366;shadow=1;" parent="1" vertex="1">
          <mxGeometry x="-180" y="380" width="120" height="60" as="geometry" />
        </mxCell>
        <mxCell id="cp8nzbBQbhLiMNm4tQ7m-1" value="Customer" style="rounded=1;arcSize=10;whiteSpace=wrap;html=1;align=center;fillColor=#ffe6cc;strokeColor=#d79b00;" parent="1" vertex="1">
          <mxGeometry x="-410" y="390" width="100" height="40" as="geometry" />
        </mxCell>
        <mxCell id="cp8nzbBQbhLiMNm4tQ7m-4" value="" style="endArrow=none;html=1;rounded=0;startSize=14;endSize=14;sourcePerimeterSpacing=8;targetPerimeterSpacing=8;curved=1;exitX=0;exitY=0.5;exitDx=0;exitDy=0;entryX=1;entryY=0.5;entryDx=0;entryDy=0;" parent="1" source="cp8nzbBQbhLiMNm4tQ7m-3" target="cp8nzbBQbhLiMNm4tQ7m-1" edge="1">
          <mxGeometry relative="1" as="geometry">
            <mxPoint x="20" y="460" as="sourcePoint" />
            <mxPoint x="-90" y="340" as="targetPoint" />
          </mxGeometry>
        </mxCell>
        <mxCell id="cp8nzbBQbhLiMNm4tQ7m-6" value="Crypto-wallet" style="rounded=1;arcSize=10;whiteSpace=wrap;html=1;align=center;fillColor=#ffe6cc;strokeColor=#d79b00;" parent="1" vertex="1">
          <mxGeometry x="130" y="385" width="100" height="40" as="geometry" />
        </mxCell>
        <mxCell id="cp8nzbBQbhLiMNm4tQ7m-8" value="Transaction" style="rounded=1;arcSize=10;whiteSpace=wrap;html=1;align=center;fillColor=#ffe6cc;strokeColor=#d79b00;" parent="1" vertex="1">
          <mxGeometry x="-410" y="651" width="100" height="40" as="geometry" />
        </mxCell>
        <mxCell id="cp8nzbBQbhLiMNm4tQ7m-10" value="Conditioned in" style="shape=rhombus;perimeter=rhombusPerimeter;whiteSpace=wrap;html=1;align=center;fillColor=#d5e8d4;strokeColor=#82b366;shadow=1;" parent="1" vertex="1">
          <mxGeometry x="-804" y="970" width="120" height="60" as="geometry" />
        </mxCell>
        <mxCell id="cp8nzbBQbhLiMNm4tQ7m-14" value="" style="endArrow=none;html=1;rounded=0;startSize=14;endSize=14;sourcePerimeterSpacing=8;targetPerimeterSpacing=8;curved=1;exitX=0.5;exitY=1;exitDx=0;exitDy=0;entryX=0;entryY=0;entryDx=0;entryDy=0;" parent="1" source="cp8nzbBQbhLiMNm4tQ7m-10" target="cp8nzbBQbhLiMNm4tQ7m-15" edge="1">
          <mxGeometry relative="1" as="geometry">
            <mxPoint x="-360" y="1233" as="sourcePoint" />
            <mxPoint x="150" y="1183" as="targetPoint" />
          </mxGeometry>
        </mxCell>
        <mxCell id="cp8nzbBQbhLiMNm4tQ7m-15" value="Branch" style="rounded=1;arcSize=10;whiteSpace=wrap;html=1;align=center;fillColor=#ffe6cc;strokeColor=#d79b00;" parent="1" vertex="1">
          <mxGeometry x="-410" y="1303" width="100" height="40" as="geometry" />
        </mxCell>
        <mxCell id="cp8nzbBQbhLiMNm4tQ7m-25" value="" style="endArrow=none;html=1;rounded=0;startSize=14;endSize=14;sourcePerimeterSpacing=8;targetPerimeterSpacing=8;curved=1;exitX=0;exitY=0.5;exitDx=0;exitDy=0;entryX=1;entryY=0.5;entryDx=0;entryDy=0;" parent="1" source="cp8nzbBQbhLiMNm4tQ7m-1" target="cp8nzbBQbhLiMNm4tQ7m-27" edge="1">
          <mxGeometry relative="1" as="geometry">
            <mxPoint x="-40" y="550" as="sourcePoint" />
            <mxPoint x="-50" y="540" as="targetPoint" />
          </mxGeometry>
        </mxCell>
        <mxCell id="cp8nzbBQbhLiMNm4tQ7m-26" value="Account" style="whiteSpace=wrap;html=1;align=center;fillColor=#ffe6cc;strokeColor=#d79b00;" parent="1" vertex="1">
          <mxGeometry x="-750" y="392.5" width="100" height="40" as="geometry" />
        </mxCell>
        <mxCell id="cp8nzbBQbhLiMNm4tQ7m-27" value="owned by" style="shape=rhombus;perimeter=rhombusPerimeter;whiteSpace=wrap;html=1;align=center;fillColor=#d5e8d4;strokeColor=#82b366;shadow=1;" parent="1" vertex="1">
          <mxGeometry x="-600" y="380" width="120" height="60" as="geometry" />
        </mxCell>
        <mxCell id="cp8nzbBQbhLiMNm4tQ7m-29" value="undergoes" style="shape=rhombus;perimeter=rhombusPerimeter;whiteSpace=wrap;html=1;align=center;fillColor=#d5e8d4;strokeColor=#82b366;shadow=1;" parent="1" vertex="1">
          <mxGeometry x="-710" y="641" width="120" height="60" as="geometry" />
        </mxCell>
        <mxCell id="cp8nzbBQbhLiMNm4tQ7m-30" value="" style="endArrow=none;html=1;rounded=0;startSize=14;endSize=14;sourcePerimeterSpacing=8;targetPerimeterSpacing=8;curved=1;exitX=0.75;exitY=1;exitDx=0;exitDy=0;entryX=0.5;entryY=0;entryDx=0;entryDy=0;" parent="1" source="cp8nzbBQbhLiMNm4tQ7m-26" target="cp8nzbBQbhLiMNm4tQ7m-29" edge="1">
          <mxGeometry relative="1" as="geometry">
            <mxPoint x="-470" y="460.0000000000001" as="sourcePoint" />
            <mxPoint x="-110" y="530" as="targetPoint" />
          </mxGeometry>
        </mxCell>
        <mxCell id="cp8nzbBQbhLiMNm4tQ7m-32" value="Employee" style="rounded=1;arcSize=10;whiteSpace=wrap;html=1;align=center;fillColor=#ffe6cc;strokeColor=#d79b00;" parent="1" vertex="1">
          <mxGeometry x="-1.25" y="1303" width="100" height="40" as="geometry" />
        </mxCell>
        <mxCell id="cp8nzbBQbhLiMNm4tQ7m-33" value="employs" style="shape=rhombus;perimeter=rhombusPerimeter;whiteSpace=wrap;html=1;align=center;fillColor=#d5e8d4;strokeColor=#82b366;shadow=1;" parent="1" vertex="1">
          <mxGeometry x="-200" y="1293" width="120" height="60" as="geometry" />
        </mxCell>
        <mxCell id="cp8nzbBQbhLiMNm4tQ7m-35" value="" style="endArrow=none;html=1;rounded=0;sourcePerimeterSpacing=8;targetPerimeterSpacing=8;curved=1;exitX=1;exitY=0.5;exitDx=0;exitDy=0;shape=link;entryX=0.048;entryY=0.503;entryDx=0;entryDy=0;entryPerimeter=0;" parent="1" source="cp8nzbBQbhLiMNm4tQ7m-15" target="cp8nzbBQbhLiMNm4tQ7m-33" edge="1">
          <mxGeometry relative="1" as="geometry">
            <mxPoint x="80" y="1223" as="sourcePoint" />
            <mxPoint x="-180" y="1323" as="targetPoint" />
          </mxGeometry>
        </mxCell>
        <mxCell id="cp8nzbBQbhLiMNm4tQ7m-48" value="" style="endArrow=none;html=1;rounded=0;startSize=14;endSize=14;sourcePerimeterSpacing=8;targetPerimeterSpacing=8;curved=1;exitX=1;exitY=0.5;exitDx=0;exitDy=0;entryX=0;entryY=0.5;entryDx=0;entryDy=0;" parent="1" source="25yWY5-NxIdnplE0Z781-9" target="cp8nzbBQbhLiMNm4tQ7m-26" edge="1">
          <mxGeometry relative="1" as="geometry">
            <mxPoint x="-790" y="499.9999999999999" as="sourcePoint" />
            <mxPoint x="-60" y="640" as="targetPoint" />
          </mxGeometry>
        </mxCell>
        <mxCell id="cp8nzbBQbhLiMNm4tQ7m-49" value="Beneficiary" style="shape=ext;margin=3;double=1;whiteSpace=wrap;html=1;align=center;fillColor=#f8cecc;strokeColor=#b85450;" parent="1" vertex="1">
          <mxGeometry x="-1104" y="393" width="100" height="40" as="geometry" />
        </mxCell>
        <mxCell id="cp8nzbBQbhLiMNm4tQ7m-50" value="" style="endArrow=none;html=1;rounded=0;sourcePerimeterSpacing=8;targetPerimeterSpacing=8;curved=1;exitX=1;exitY=0.5;exitDx=0;exitDy=0;entryX=0;entryY=0.5;entryDx=0;entryDy=0;shape=link;" parent="1" source="cp8nzbBQbhLiMNm4tQ7m-49" target="25yWY5-NxIdnplE0Z781-9" edge="1">
          <mxGeometry relative="1" as="geometry">
            <mxPoint x="-394" y="533" as="sourcePoint" />
            <mxPoint x="-964" y="412.9999999999999" as="targetPoint" />
          </mxGeometry>
        </mxCell>
        <mxCell id="cp8nzbBQbhLiMNm4tQ7m-62" value="Associated with" style="shape=rhombus;perimeter=rhombusPerimeter;whiteSpace=wrap;html=1;align=center;fillColor=#d5e8d4;strokeColor=#82b366;shadow=1;" parent="1" vertex="1">
          <mxGeometry x="115" y="641" width="120" height="60" as="geometry" />
        </mxCell>
        <mxCell id="cp8nzbBQbhLiMNm4tQ7m-64" value="" style="endArrow=none;html=1;rounded=0;startSize=14;endSize=14;sourcePerimeterSpacing=8;targetPerimeterSpacing=8;curved=1;exitX=0.5;exitY=0;exitDx=0;exitDy=0;entryX=0.5;entryY=1;entryDx=0;entryDy=0;" parent="1" source="cp8nzbBQbhLiMNm4tQ7m-62" target="cp8nzbBQbhLiMNm4tQ7m-6" edge="1">
          <mxGeometry relative="1" as="geometry">
            <mxPoint x="70" y="570" as="sourcePoint" />
            <mxPoint x="230" y="570" as="targetPoint" />
          </mxGeometry>
        </mxCell>
        <mxCell id="cp8nzbBQbhLiMNm4tQ7m-72" value="Contains" style="shape=rhombus;perimeter=rhombusPerimeter;whiteSpace=wrap;html=1;align=center;fillColor=#d5e8d4;strokeColor=#82b366;shadow=1;" parent="1" vertex="1">
          <mxGeometry x="256" y="376" width="120" height="60" as="geometry" />
        </mxCell>
        <mxCell id="cp8nzbBQbhLiMNm4tQ7m-73" value="" style="endArrow=none;html=1;rounded=0;startSize=14;endSize=14;sourcePerimeterSpacing=8;targetPerimeterSpacing=8;curved=1;exitX=1;exitY=0.5;exitDx=0;exitDy=0;entryX=0;entryY=0.5;entryDx=0;entryDy=0;" parent="1" source="cp8nzbBQbhLiMNm4tQ7m-6" target="cp8nzbBQbhLiMNm4tQ7m-72" edge="1">
          <mxGeometry relative="1" as="geometry">
            <mxPoint x="326" y="546" as="sourcePoint" />
            <mxPoint x="486" y="546" as="targetPoint" />
          </mxGeometry>
        </mxCell>
        <mxCell id="cp8nzbBQbhLiMNm4tQ7m-74" value="CryptoCurrency" style="rounded=1;arcSize=10;whiteSpace=wrap;html=1;align=center;fillColor=#ffe6cc;strokeColor=#d79b00;" parent="1" vertex="1">
          <mxGeometry x="450" y="390" width="100" height="40" as="geometry" />
        </mxCell>
        <mxCell id="cp8nzbBQbhLiMNm4tQ7m-88" value="" style="endArrow=none;html=1;rounded=0;startSize=14;endSize=14;sourcePerimeterSpacing=8;targetPerimeterSpacing=8;curved=1;entryX=0.5;entryY=0;entryDx=0;entryDy=0;exitX=0.5;exitY=1;exitDx=0;exitDy=0;" parent="1" source="cp8nzbBQbhLiMNm4tQ7m-89" target="cp8nzbBQbhLiMNm4tQ7m-1" edge="1">
          <mxGeometry relative="1" as="geometry">
            <mxPoint x="-810" y="410" as="sourcePoint" />
            <mxPoint x="-760" y="410" as="targetPoint" />
          </mxGeometry>
        </mxCell>
        <mxCell id="cp8nzbBQbhLiMNm4tQ7m-89" value="has" style="shape=rhombus;perimeter=rhombusPerimeter;whiteSpace=wrap;html=1;align=center;fillColor=#d5e8d4;strokeColor=#82b366;shadow=1;" parent="1" vertex="1">
          <mxGeometry x="-420" y="230" width="120" height="60" as="geometry" />
        </mxCell>
        <mxCell id="cp8nzbBQbhLiMNm4tQ7m-91" value="Credit card" style="rounded=1;arcSize=10;whiteSpace=wrap;html=1;align=center;fillColor=#ffe6cc;strokeColor=#d79b00;" parent="1" vertex="1">
          <mxGeometry x="-410" y="120" width="100" height="40" as="geometry" />
        </mxCell>
        <mxCell id="25yWY5-NxIdnplE0Z781-3" value="supervise" style="shape=rhombus;perimeter=rhombusPerimeter;whiteSpace=wrap;html=1;align=center;fillColor=#d5e8d4;strokeColor=#82b366;shadow=1;" parent="1" vertex="1">
          <mxGeometry x="32.5" y="1398" width="95" height="60" as="geometry" />
        </mxCell>
        <mxCell id="25yWY5-NxIdnplE0Z781-4" value="" style="endArrow=none;html=1;rounded=0;startSize=14;endSize=14;sourcePerimeterSpacing=8;targetPerimeterSpacing=8;curved=1;exitX=0;exitY=0.5;exitDx=0;exitDy=0;entryX=0.75;entryY=1;entryDx=0;entryDy=0;" parent="1" source="25yWY5-NxIdnplE0Z781-3" target="cp8nzbBQbhLiMNm4tQ7m-32" edge="1">
          <mxGeometry relative="1" as="geometry">
            <mxPoint x="-60" y="1323" as="sourcePoint" />
            <mxPoint x="100" y="1323" as="targetPoint" />
          </mxGeometry>
        </mxCell>
        <mxCell id="25yWY5-NxIdnplE0Z781-5" value="" style="endArrow=none;html=1;rounded=0;sourcePerimeterSpacing=8;targetPerimeterSpacing=8;curved=1;exitX=0.75;exitY=1;exitDx=0;exitDy=0;entryX=1;entryY=0.5;entryDx=0;entryDy=0;shape=link;" parent="1" source="cp8nzbBQbhLiMNm4tQ7m-32" target="25yWY5-NxIdnplE0Z781-3" edge="1">
          <mxGeometry relative="1" as="geometry">
            <mxPoint x="-60" y="1323" as="sourcePoint" />
            <mxPoint x="100" y="1323" as="targetPoint" />
          </mxGeometry>
        </mxCell>
        <mxCell id="25yWY5-NxIdnplE0Z781-7" value="superviser" style="text;strokeColor=none;fillColor=none;html=1;align=center;verticalAlign=middle;whiteSpace=wrap;rounded=0;" parent="1" vertex="1">
          <mxGeometry x="32.5" y="1458" width="60" height="30" as="geometry" />
        </mxCell>
        <mxCell id="25yWY5-NxIdnplE0Z781-8" value="supervisee" style="text;strokeColor=none;fillColor=none;html=1;align=center;verticalAlign=middle;whiteSpace=wrap;rounded=0;" parent="1" vertex="1">
          <mxGeometry x="115" y="1458" width="60" height="30" as="geometry" />
        </mxCell>
        <mxCell id="25yWY5-NxIdnplE0Z781-9" value="linked to" style="shape=rhombus;double=1;perimeter=rhombusPerimeter;whiteSpace=wrap;html=1;align=center;fillColor=#f8cecc;strokeColor=#b85450;shadow=1;" parent="1" vertex="1">
          <mxGeometry x="-964" y="383" width="120" height="60" as="geometry" />
        </mxCell>
        <mxCell id="KYh0tj7lqW5dZ13TWYTu-1" value="&lt;u&gt;CustomerID&lt;/u&gt;" style="ellipse;whiteSpace=wrap;html=1;fillColor=#dae8fc;strokeColor=#6c8ebf;" parent="1" vertex="1">
          <mxGeometry x="-500" y="342.5" width="70" height="50" as="geometry" />
        </mxCell>
        <mxCell id="KYh0tj7lqW5dZ13TWYTu-2" value="cname" style="ellipse;whiteSpace=wrap;html=1;fillColor=#e1d5e7;strokeColor=#9673a6;" parent="1" vertex="1">
          <mxGeometry x="-450" y="300" width="60" height="40" as="geometry" />
        </mxCell>
        <mxCell id="KYh0tj7lqW5dZ13TWYTu-3" value="caddress" style="ellipse;whiteSpace=wrap;html=1;fillColor=#e1d5e7;strokeColor=#9673a6;" parent="1" vertex="1">
          <mxGeometry x="-330" y="310" width="60" height="40" as="geometry" />
        </mxCell>
        <mxCell id="KYh0tj7lqW5dZ13TWYTu-5" value="Email" style="ellipse;whiteSpace=wrap;html=1;fillColor=#dae8fc;strokeColor=#6c8ebf;" parent="1" vertex="1">
          <mxGeometry x="-282.5" y="420" width="60" height="40" as="geometry" />
        </mxCell>
        <mxCell id="KYh0tj7lqW5dZ13TWYTu-6" value="SSN" style="ellipse;whiteSpace=wrap;html=1;fillColor=#dae8fc;strokeColor=#6c8ebf;" parent="1" vertex="1">
          <mxGeometry x="-500" y="430" width="60" height="40" as="geometry" />
        </mxCell>
        <mxCell id="KYh0tj7lqW5dZ13TWYTu-8" style="edgeStyle=orthogonalEdgeStyle;rounded=0;orthogonalLoop=1;jettySize=auto;html=1;exitX=0.5;exitY=1;exitDx=0;exitDy=0;" parent="1" source="KYh0tj7lqW5dZ13TWYTu-5" target="KYh0tj7lqW5dZ13TWYTu-5" edge="1">
          <mxGeometry relative="1" as="geometry" />
        </mxCell>
        <mxCell id="KYh0tj7lqW5dZ13TWYTu-10" value="" style="endArrow=none;html=1;rounded=0;entryX=1;entryY=1;entryDx=0;entryDy=0;exitX=0;exitY=0;exitDx=0;exitDy=0;" parent="1" source="cp8nzbBQbhLiMNm4tQ7m-1" target="KYh0tj7lqW5dZ13TWYTu-1" edge="1">
          <mxGeometry width="50" height="50" relative="1" as="geometry">
            <mxPoint x="-490" y="680" as="sourcePoint" />
            <mxPoint x="-440" y="630" as="targetPoint" />
          </mxGeometry>
        </mxCell>
        <mxCell id="KYh0tj7lqW5dZ13TWYTu-11" value="" style="endArrow=none;html=1;rounded=0;entryX=0.5;entryY=1;entryDx=0;entryDy=0;exitX=0.25;exitY=0;exitDx=0;exitDy=0;" parent="1" source="cp8nzbBQbhLiMNm4tQ7m-1" target="KYh0tj7lqW5dZ13TWYTu-2" edge="1">
          <mxGeometry width="50" height="50" relative="1" as="geometry">
            <mxPoint x="-400" y="400" as="sourcePoint" />
            <mxPoint x="-440" y="383" as="targetPoint" />
          </mxGeometry>
        </mxCell>
        <mxCell id="KYh0tj7lqW5dZ13TWYTu-12" value="" style="endArrow=none;html=1;rounded=0;entryX=0.5;entryY=1;entryDx=0;entryDy=0;exitX=0.75;exitY=0;exitDx=0;exitDy=0;" parent="1" source="cp8nzbBQbhLiMNm4tQ7m-1" target="KYh0tj7lqW5dZ13TWYTu-3" edge="1">
          <mxGeometry width="50" height="50" relative="1" as="geometry">
            <mxPoint x="-375" y="400" as="sourcePoint" />
            <mxPoint x="-389" y="344" as="targetPoint" />
          </mxGeometry>
        </mxCell>
        <mxCell id="KYh0tj7lqW5dZ13TWYTu-15" value="" style="endArrow=none;html=1;rounded=0;entryX=0;entryY=0;entryDx=0;entryDy=0;exitX=1;exitY=1;exitDx=0;exitDy=0;" parent="1" source="cp8nzbBQbhLiMNm4tQ7m-1" target="KYh0tj7lqW5dZ13TWYTu-5" edge="1">
          <mxGeometry width="50" height="50" relative="1" as="geometry">
            <mxPoint x="-325" y="400" as="sourcePoint" />
            <mxPoint x="-311" y="344" as="targetPoint" />
          </mxGeometry>
        </mxCell>
        <mxCell id="KYh0tj7lqW5dZ13TWYTu-16" value="" style="endArrow=none;html=1;rounded=0;entryX=1;entryY=0;entryDx=0;entryDy=0;exitX=0;exitY=0.75;exitDx=0;exitDy=0;" parent="1" source="cp8nzbBQbhLiMNm4tQ7m-1" target="KYh0tj7lqW5dZ13TWYTu-6" edge="1">
          <mxGeometry width="50" height="50" relative="1" as="geometry">
            <mxPoint x="-300" y="440" as="sourcePoint" />
            <mxPoint x="-271" y="456" as="targetPoint" />
          </mxGeometry>
        </mxCell>
        <mxCell id="KYh0tj7lqW5dZ13TWYTu-17" value="&lt;u&gt;AccountID&lt;/u&gt;" style="ellipse;whiteSpace=wrap;html=1;fillColor=#dae8fc;strokeColor=#6c8ebf;" parent="1" vertex="1">
          <mxGeometry x="-874" y="312" width="70" height="50" as="geometry" />
        </mxCell>
        <mxCell id="KYh0tj7lqW5dZ13TWYTu-18" value="AccountType" style="ellipse;whiteSpace=wrap;html=1;fillColor=#dae8fc;strokeColor=#6c8ebf;" parent="1" vertex="1">
          <mxGeometry x="-790" y="297.5" width="80" height="40" as="geometry" />
        </mxCell>
        <mxCell id="KYh0tj7lqW5dZ13TWYTu-19" value="Balance" style="ellipse;whiteSpace=wrap;html=1;fillColor=#dae8fc;strokeColor=#6c8ebf;" parent="1" vertex="1">
          <mxGeometry x="-678" y="312" width="60" height="40" as="geometry" />
        </mxCell>
        <mxCell id="KYh0tj7lqW5dZ13TWYTu-21" value="DateOpened" style="ellipse;whiteSpace=wrap;html=1;fillColor=#dae8fc;strokeColor=#6c8ebf;" parent="1" vertex="1">
          <mxGeometry x="-450" y="-230" width="80" height="50" as="geometry" />
        </mxCell>
        <mxCell id="KYh0tj7lqW5dZ13TWYTu-22" value="" style="endArrow=none;html=1;rounded=0;entryX=1;entryY=1;entryDx=0;entryDy=0;exitX=0;exitY=0.25;exitDx=0;exitDy=0;" parent="1" source="cp8nzbBQbhLiMNm4tQ7m-26" target="KYh0tj7lqW5dZ13TWYTu-17" edge="1">
          <mxGeometry width="50" height="50" relative="1" as="geometry">
            <mxPoint x="-750" y="390" as="sourcePoint" />
            <mxPoint x="-780" y="630" as="targetPoint" />
          </mxGeometry>
        </mxCell>
        <mxCell id="KYh0tj7lqW5dZ13TWYTu-23" value="" style="endArrow=none;html=1;rounded=0;entryX=0.5;entryY=1;entryDx=0;entryDy=0;exitX=0.25;exitY=0;exitDx=0;exitDy=0;" parent="1" source="cp8nzbBQbhLiMNm4tQ7m-26" target="KYh0tj7lqW5dZ13TWYTu-18" edge="1">
          <mxGeometry width="50" height="50" relative="1" as="geometry">
            <mxPoint x="-725" y="390" as="sourcePoint" />
            <mxPoint x="-780" y="383" as="targetPoint" />
          </mxGeometry>
        </mxCell>
        <mxCell id="KYh0tj7lqW5dZ13TWYTu-24" value="" style="endArrow=none;html=1;rounded=0;entryX=0.5;entryY=1;entryDx=0;entryDy=0;exitX=0.75;exitY=0;exitDx=0;exitDy=0;" parent="1" source="cp8nzbBQbhLiMNm4tQ7m-26" target="KYh0tj7lqW5dZ13TWYTu-19" edge="1">
          <mxGeometry width="50" height="50" relative="1" as="geometry">
            <mxPoint x="-700" y="390" as="sourcePoint" />
            <mxPoint x="-729" y="344" as="targetPoint" />
          </mxGeometry>
        </mxCell>
        <mxCell id="KYh0tj7lqW5dZ13TWYTu-26" value="" style="endArrow=none;html=1;rounded=0;exitX=0;exitY=0;exitDx=0;exitDy=0;" parent="1" source="1ZfyY-yyabJH_yNaMhFH-1" target="KYh0tj7lqW5dZ13TWYTu-21" edge="1">
          <mxGeometry width="50" height="50" relative="1" as="geometry">
            <mxPoint x="-650" y="390" as="sourcePoint" />
            <mxPoint x="-651" y="344" as="targetPoint" />
          </mxGeometry>
        </mxCell>
        <mxCell id="KYh0tj7lqW5dZ13TWYTu-48" value="&lt;u&gt;BranchID&lt;/u&gt;" style="ellipse;whiteSpace=wrap;html=1;fillColor=#dae8fc;strokeColor=#6c8ebf;" parent="1" vertex="1">
          <mxGeometry x="-460" y="1373" width="70" height="30" as="geometry" />
        </mxCell>
        <mxCell id="KYh0tj7lqW5dZ13TWYTu-49" value="Branchname" style="ellipse;whiteSpace=wrap;html=1;fillColor=#dae8fc;strokeColor=#6c8ebf;" parent="1" vertex="1">
          <mxGeometry x="-270" y="1343" width="80" height="20" as="geometry" />
        </mxCell>
        <mxCell id="KYh0tj7lqW5dZ13TWYTu-50" value="Location" style="ellipse;whiteSpace=wrap;html=1;fillColor=#e1d5e7;strokeColor=#9673a6;" parent="1" vertex="1">
          <mxGeometry x="-310" y="1363" width="60" height="40" as="geometry" />
        </mxCell>
        <mxCell id="KYh0tj7lqW5dZ13TWYTu-55" value="" style="endArrow=none;html=1;rounded=0;exitX=0.25;exitY=1;exitDx=0;exitDy=0;entryX=1;entryY=0;entryDx=0;entryDy=0;" parent="1" source="cp8nzbBQbhLiMNm4tQ7m-15" target="KYh0tj7lqW5dZ13TWYTu-48" edge="1">
          <mxGeometry width="50" height="50" relative="1" as="geometry">
            <mxPoint x="-410" y="1288" as="sourcePoint" />
            <mxPoint x="-410" y="1383" as="targetPoint" />
            <Array as="points" />
          </mxGeometry>
        </mxCell>
        <mxCell id="KYh0tj7lqW5dZ13TWYTu-56" value="" style="endArrow=none;html=1;rounded=0;exitX=0;exitY=0.5;exitDx=0;exitDy=0;entryX=1;entryY=0.75;entryDx=0;entryDy=0;" parent="1" source="KYh0tj7lqW5dZ13TWYTu-49" target="cp8nzbBQbhLiMNm4tQ7m-15" edge="1">
          <mxGeometry width="50" height="50" relative="1" as="geometry">
            <mxPoint x="-450" y="1113" as="sourcePoint" />
            <mxPoint x="-400" y="1063" as="targetPoint" />
          </mxGeometry>
        </mxCell>
        <mxCell id="KYh0tj7lqW5dZ13TWYTu-57" value="" style="endArrow=none;html=1;rounded=0;exitX=0.75;exitY=1;exitDx=0;exitDy=0;entryX=0;entryY=0;entryDx=0;entryDy=0;" parent="1" source="cp8nzbBQbhLiMNm4tQ7m-15" target="KYh0tj7lqW5dZ13TWYTu-50" edge="1">
          <mxGeometry width="50" height="50" relative="1" as="geometry">
            <mxPoint x="-260" y="1333" as="sourcePoint" />
            <mxPoint x="-300" y="1333" as="targetPoint" />
          </mxGeometry>
        </mxCell>
        <mxCell id="KYh0tj7lqW5dZ13TWYTu-58" value="&lt;u&gt;CardNum&lt;/u&gt;" style="ellipse;whiteSpace=wrap;html=1;fillColor=#dae8fc;strokeColor=#6c8ebf;" parent="1" vertex="1">
          <mxGeometry x="-480" y="90" width="70" height="27.5" as="geometry" />
        </mxCell>
        <mxCell id="KYh0tj7lqW5dZ13TWYTu-59" value="ExpDate" style="ellipse;whiteSpace=wrap;html=1;fillColor=#dae8fc;strokeColor=#6c8ebf;" parent="1" vertex="1">
          <mxGeometry x="-400" y="82.5" width="80" height="20" as="geometry" />
        </mxCell>
        <mxCell id="KYh0tj7lqW5dZ13TWYTu-60" value="CreditLimit" style="ellipse;whiteSpace=wrap;html=1;fillColor=#dae8fc;strokeColor=#6c8ebf;" parent="1" vertex="1">
          <mxGeometry x="-295" y="83.75" width="60" height="40" as="geometry" />
        </mxCell>
        <mxCell id="KYh0tj7lqW5dZ13TWYTu-61" value="" style="endArrow=none;html=1;rounded=0;entryX=1;entryY=1;entryDx=0;entryDy=0;exitX=0;exitY=0;exitDx=0;exitDy=0;" parent="1" target="KYh0tj7lqW5dZ13TWYTu-58" edge="1">
          <mxGeometry width="50" height="50" relative="1" as="geometry">
            <mxPoint x="-400" y="120" as="sourcePoint" />
            <mxPoint x="-430" y="360" as="targetPoint" />
          </mxGeometry>
        </mxCell>
        <mxCell id="KYh0tj7lqW5dZ13TWYTu-62" value="" style="endArrow=none;html=1;rounded=0;entryX=0.5;entryY=1;entryDx=0;entryDy=0;exitX=0.5;exitY=0;exitDx=0;exitDy=0;" parent="1" source="cp8nzbBQbhLiMNm4tQ7m-91" target="KYh0tj7lqW5dZ13TWYTu-59" edge="1">
          <mxGeometry width="50" height="50" relative="1" as="geometry">
            <mxPoint x="-375" y="120" as="sourcePoint" />
            <mxPoint x="-430" y="113" as="targetPoint" />
          </mxGeometry>
        </mxCell>
        <mxCell id="KYh0tj7lqW5dZ13TWYTu-63" value="" style="endArrow=none;html=1;rounded=0;entryX=0;entryY=1;entryDx=0;entryDy=0;exitX=0.75;exitY=0;exitDx=0;exitDy=0;" parent="1" target="KYh0tj7lqW5dZ13TWYTu-60" edge="1">
          <mxGeometry width="50" height="50" relative="1" as="geometry">
            <mxPoint x="-325" y="120" as="sourcePoint" />
            <mxPoint x="-379" y="74" as="targetPoint" />
          </mxGeometry>
        </mxCell>
        <mxCell id="NyHtIuRuuXQ_OXRChrR5-1" value="&lt;u&gt;EmployeeID&lt;/u&gt;" style="ellipse;whiteSpace=wrap;html=1;fillColor=#dae8fc;strokeColor=#6c8ebf;" parent="1" vertex="1">
          <mxGeometry x="-60" y="1400.5" width="70" height="22.5" as="geometry" />
        </mxCell>
        <mxCell id="NyHtIuRuuXQ_OXRChrR5-2" value="Position" style="ellipse;whiteSpace=wrap;html=1;fillColor=#dae8fc;strokeColor=#6c8ebf;" parent="1" vertex="1">
          <mxGeometry x="55" y="1268" width="60" height="15" as="geometry" />
        </mxCell>
        <mxCell id="NyHtIuRuuXQ_OXRChrR5-3" value="Salary" style="ellipse;whiteSpace=wrap;html=1;fillColor=#dae8fc;strokeColor=#6c8ebf;" parent="1" vertex="1">
          <mxGeometry x="22.5" y="1214.25" width="60" height="20" as="geometry" />
        </mxCell>
        <mxCell id="NyHtIuRuuXQ_OXRChrR5-6" value="" style="endArrow=none;html=1;rounded=0;entryX=0.5;entryY=0;entryDx=0;entryDy=0;exitX=0.25;exitY=1;exitDx=0;exitDy=0;" parent="1" source="cp8nzbBQbhLiMNm4tQ7m-32" target="NyHtIuRuuXQ_OXRChrR5-1" edge="1">
          <mxGeometry width="50" height="50" relative="1" as="geometry">
            <mxPoint x="-710" y="1303" as="sourcePoint" />
            <mxPoint x="-740" y="1543" as="targetPoint" />
          </mxGeometry>
        </mxCell>
        <mxCell id="NyHtIuRuuXQ_OXRChrR5-7" value="" style="endArrow=none;html=1;rounded=0;entryX=0.5;entryY=1;entryDx=0;entryDy=0;exitX=0.75;exitY=0;exitDx=0;exitDy=0;" parent="1" source="cp8nzbBQbhLiMNm4tQ7m-32" target="NyHtIuRuuXQ_OXRChrR5-2" edge="1">
          <mxGeometry width="50" height="50" relative="1" as="geometry">
            <mxPoint x="-685" y="1303" as="sourcePoint" />
            <mxPoint x="-740" y="1296" as="targetPoint" />
          </mxGeometry>
        </mxCell>
        <mxCell id="NyHtIuRuuXQ_OXRChrR5-8" value="" style="endArrow=none;html=1;rounded=0;entryX=0.5;entryY=1;entryDx=0;entryDy=0;exitX=0.5;exitY=0;exitDx=0;exitDy=0;" parent="1" source="cp8nzbBQbhLiMNm4tQ7m-32" target="NyHtIuRuuXQ_OXRChrR5-3" edge="1">
          <mxGeometry width="50" height="50" relative="1" as="geometry">
            <mxPoint x="-660" y="1303" as="sourcePoint" />
            <mxPoint x="-689" y="1257" as="targetPoint" />
          </mxGeometry>
        </mxCell>
        <mxCell id="NyHtIuRuuXQ_OXRChrR5-11" value="Dependent" style="shape=ext;margin=3;double=1;whiteSpace=wrap;html=1;align=center;fillColor=#f8cecc;strokeColor=#b85450;" parent="1" vertex="1">
          <mxGeometry x="-40" y="1633" width="100" height="40" as="geometry" />
        </mxCell>
        <mxCell id="NyHtIuRuuXQ_OXRChrR5-13" value="depends on" style="shape=rhombus;double=1;perimeter=rhombusPerimeter;whiteSpace=wrap;html=1;align=center;fillColor=#f8cecc;strokeColor=#b85450;shadow=1;" parent="1" vertex="1">
          <mxGeometry x="-50" y="1503" width="120" height="60" as="geometry" />
        </mxCell>
        <mxCell id="NyHtIuRuuXQ_OXRChrR5-15" value="" style="endArrow=none;html=1;rounded=0;exitX=0.25;exitY=1;exitDx=0;exitDy=0;entryX=0.5;entryY=0;entryDx=0;entryDy=0;" parent="1" source="cp8nzbBQbhLiMNm4tQ7m-32" target="NyHtIuRuuXQ_OXRChrR5-13" edge="1">
          <mxGeometry width="50" height="50" relative="1" as="geometry">
            <mxPoint x="-300" y="1333" as="sourcePoint" />
            <mxPoint x="150" y="1383" as="targetPoint" />
          </mxGeometry>
        </mxCell>
        <mxCell id="NyHtIuRuuXQ_OXRChrR5-16" value="&lt;u&gt;TransactionID&lt;/u&gt;" style="ellipse;whiteSpace=wrap;html=1;fillColor=#dae8fc;strokeColor=#6c8ebf;" parent="1" vertex="1">
          <mxGeometry x="-490" y="691" width="80" height="50" as="geometry" />
        </mxCell>
        <mxCell id="NyHtIuRuuXQ_OXRChrR5-17" value="TransactionType" style="ellipse;whiteSpace=wrap;html=1;fillColor=#dae8fc;strokeColor=#6c8ebf;" parent="1" vertex="1">
          <mxGeometry x="-310" y="691" width="90" height="40" as="geometry" />
        </mxCell>
        <mxCell id="NyHtIuRuuXQ_OXRChrR5-18" value="Amount" style="ellipse;whiteSpace=wrap;html=1;fillColor=#dae8fc;strokeColor=#6c8ebf;" parent="1" vertex="1">
          <mxGeometry x="-270" y="615" width="60" height="40" as="geometry" />
        </mxCell>
        <mxCell id="NyHtIuRuuXQ_OXRChrR5-19" value="Tdescription" style="ellipse;whiteSpace=wrap;html=1;fillColor=#dae8fc;strokeColor=#6c8ebf;" parent="1" vertex="1">
          <mxGeometry x="-480" y="600" width="70" height="40" as="geometry" />
        </mxCell>
        <mxCell id="NyHtIuRuuXQ_OXRChrR5-20" value="Date" style="ellipse;whiteSpace=wrap;html=1;fillColor=#dae8fc;strokeColor=#6c8ebf;" parent="1" vertex="1">
          <mxGeometry x="-340" y="590" width="60" height="40" as="geometry" />
        </mxCell>
        <mxCell id="NyHtIuRuuXQ_OXRChrR5-21" value="" style="endArrow=none;html=1;rounded=0;exitX=1;exitY=0;exitDx=0;exitDy=0;entryX=0;entryY=1;entryDx=0;entryDy=0;" parent="1" source="NyHtIuRuuXQ_OXRChrR5-16" target="cp8nzbBQbhLiMNm4tQ7m-8" edge="1">
          <mxGeometry width="50" height="50" relative="1" as="geometry">
            <mxPoint x="-220" y="651" as="sourcePoint" />
            <mxPoint x="-170" y="601" as="targetPoint" />
          </mxGeometry>
        </mxCell>
        <mxCell id="NyHtIuRuuXQ_OXRChrR5-22" value="" style="endArrow=none;html=1;rounded=0;exitX=0.5;exitY=1;exitDx=0;exitDy=0;entryX=0.25;entryY=0;entryDx=0;entryDy=0;" parent="1" target="cp8nzbBQbhLiMNm4tQ7m-8" edge="1">
          <mxGeometry width="50" height="50" relative="1" as="geometry">
            <mxPoint x="-445" y="641" as="sourcePoint" />
            <mxPoint x="-170" y="601" as="targetPoint" />
          </mxGeometry>
        </mxCell>
        <mxCell id="NyHtIuRuuXQ_OXRChrR5-23" value="" style="endArrow=none;html=1;rounded=0;exitX=0.5;exitY=1;exitDx=0;exitDy=0;entryX=0.75;entryY=0;entryDx=0;entryDy=0;" parent="1" source="NyHtIuRuuXQ_OXRChrR5-20" target="cp8nzbBQbhLiMNm4tQ7m-8" edge="1">
          <mxGeometry width="50" height="50" relative="1" as="geometry">
            <mxPoint x="-390" y="620" as="sourcePoint" />
            <mxPoint x="-375" y="660" as="targetPoint" />
          </mxGeometry>
        </mxCell>
        <mxCell id="NyHtIuRuuXQ_OXRChrR5-24" value="" style="endArrow=none;html=1;rounded=0;exitX=0;exitY=1;exitDx=0;exitDy=0;entryX=1;entryY=0;entryDx=0;entryDy=0;" parent="1" target="cp8nzbBQbhLiMNm4tQ7m-8" edge="1">
          <mxGeometry width="50" height="50" relative="1" as="geometry">
            <mxPoint x="-260.46954751067915" y="650.6211053647703" as="sourcePoint" />
            <mxPoint x="-325" y="661" as="targetPoint" />
          </mxGeometry>
        </mxCell>
        <mxCell id="NyHtIuRuuXQ_OXRChrR5-25" value="" style="endArrow=none;html=1;rounded=0;exitX=1;exitY=1;exitDx=0;exitDy=0;entryX=0;entryY=0;entryDx=0;entryDy=0;" parent="1" source="cp8nzbBQbhLiMNm4tQ7m-8" target="NyHtIuRuuXQ_OXRChrR5-17" edge="1">
          <mxGeometry width="50" height="50" relative="1" as="geometry">
            <mxPoint x="-266" y="655" as="sourcePoint" />
            <mxPoint x="-300" y="661" as="targetPoint" />
          </mxGeometry>
        </mxCell>
        <mxCell id="NyHtIuRuuXQ_OXRChrR5-28" value="&lt;u&gt;PrivateKey&lt;/u&gt;" style="ellipse;whiteSpace=wrap;html=1;fillColor=#dae8fc;strokeColor=#6c8ebf;" parent="1" vertex="1">
          <mxGeometry x="5" y="340" width="70" height="37.5" as="geometry" />
        </mxCell>
        <mxCell id="NyHtIuRuuXQ_OXRChrR5-29" value="Balance" style="ellipse;whiteSpace=wrap;html=1;fillColor=#dae8fc;strokeColor=#6c8ebf;" parent="1" vertex="1">
          <mxGeometry x="225" y="330" width="60" height="35" as="geometry" />
        </mxCell>
        <mxCell id="NyHtIuRuuXQ_OXRChrR5-30" value="WalletName" style="ellipse;whiteSpace=wrap;html=1;fillColor=#dae8fc;strokeColor=#6c8ebf;" parent="1" vertex="1">
          <mxGeometry x="81" y="330" width="70" height="26" as="geometry" />
        </mxCell>
        <mxCell id="NyHtIuRuuXQ_OXRChrR5-31" value="" style="endArrow=none;html=1;rounded=0;entryX=1;entryY=1;entryDx=0;entryDy=0;exitX=0.25;exitY=0;exitDx=0;exitDy=0;" parent="1" source="cp8nzbBQbhLiMNm4tQ7m-6" target="NyHtIuRuuXQ_OXRChrR5-28" edge="1">
          <mxGeometry width="50" height="50" relative="1" as="geometry">
            <mxPoint x="-140" y="550" as="sourcePoint" />
            <mxPoint x="-90" y="500" as="targetPoint" />
          </mxGeometry>
        </mxCell>
        <mxCell id="NyHtIuRuuXQ_OXRChrR5-32" value="" style="endArrow=none;html=1;rounded=0;entryX=0.5;entryY=1;entryDx=0;entryDy=0;exitX=0.5;exitY=0;exitDx=0;exitDy=0;" parent="1" source="cp8nzbBQbhLiMNm4tQ7m-6" target="NyHtIuRuuXQ_OXRChrR5-30" edge="1">
          <mxGeometry width="50" height="50" relative="1" as="geometry">
            <mxPoint x="101" y="396" as="sourcePoint" />
            <mxPoint x="66" y="374" as="targetPoint" />
          </mxGeometry>
        </mxCell>
        <mxCell id="NyHtIuRuuXQ_OXRChrR5-33" value="" style="endArrow=none;html=1;rounded=0;entryX=0;entryY=1;entryDx=0;entryDy=0;exitX=0.75;exitY=0;exitDx=0;exitDy=0;" parent="1" source="cp8nzbBQbhLiMNm4tQ7m-6" target="NyHtIuRuuXQ_OXRChrR5-29" edge="1">
          <mxGeometry width="50" height="50" relative="1" as="geometry">
            <mxPoint x="126" y="396" as="sourcePoint" />
            <mxPoint x="126" y="366" as="targetPoint" />
          </mxGeometry>
        </mxCell>
        <mxCell id="NyHtIuRuuXQ_OXRChrR5-49" value="&lt;u&gt;CryotoID&lt;/u&gt;" style="ellipse;whiteSpace=wrap;html=1;fillColor=#dae8fc;strokeColor=#6c8ebf;" parent="1" vertex="1">
          <mxGeometry x="390" y="337.5" width="70" height="50" as="geometry" />
        </mxCell>
        <mxCell id="NyHtIuRuuXQ_OXRChrR5-50" value="Symbol" style="ellipse;whiteSpace=wrap;html=1;fillColor=#dae8fc;strokeColor=#6c8ebf;" parent="1" vertex="1">
          <mxGeometry x="545" y="340" width="60" height="40" as="geometry" />
        </mxCell>
        <mxCell id="NyHtIuRuuXQ_OXRChrR5-51" value="currencyName" style="ellipse;whiteSpace=wrap;html=1;fillColor=#dae8fc;strokeColor=#6c8ebf;" parent="1" vertex="1">
          <mxGeometry x="460" y="327.5" width="82.5" height="40" as="geometry" />
        </mxCell>
        <mxCell id="NyHtIuRuuXQ_OXRChrR5-52" value="" style="endArrow=none;html=1;rounded=0;entryX=1;entryY=1;entryDx=0;entryDy=0;exitX=0.25;exitY=0;exitDx=0;exitDy=0;" parent="1" target="NyHtIuRuuXQ_OXRChrR5-49" edge="1">
          <mxGeometry width="50" height="50" relative="1" as="geometry">
            <mxPoint x="475" y="390" as="sourcePoint" />
            <mxPoint x="320" y="500" as="targetPoint" />
          </mxGeometry>
        </mxCell>
        <mxCell id="NyHtIuRuuXQ_OXRChrR5-53" value="" style="endArrow=none;html=1;rounded=0;entryX=0.5;entryY=1;entryDx=0;entryDy=0;exitX=0.5;exitY=0;exitDx=0;exitDy=0;" parent="1" source="cp8nzbBQbhLiMNm4tQ7m-74" target="NyHtIuRuuXQ_OXRChrR5-51" edge="1">
          <mxGeometry width="50" height="50" relative="1" as="geometry">
            <mxPoint x="500" y="390" as="sourcePoint" />
            <mxPoint x="450" y="378" as="targetPoint" />
          </mxGeometry>
        </mxCell>
        <mxCell id="NyHtIuRuuXQ_OXRChrR5-54" value="" style="endArrow=none;html=1;rounded=0;entryX=0;entryY=1;entryDx=0;entryDy=0;exitX=0.75;exitY=0;exitDx=0;exitDy=0;" parent="1" source="cp8nzbBQbhLiMNm4tQ7m-74" target="NyHtIuRuuXQ_OXRChrR5-50" edge="1">
          <mxGeometry width="50" height="50" relative="1" as="geometry">
            <mxPoint x="525" y="390" as="sourcePoint" />
            <mxPoint x="510" y="370" as="targetPoint" />
            <Array as="points" />
          </mxGeometry>
        </mxCell>
        <mxCell id="NyHtIuRuuXQ_OXRChrR5-57" value="" style="endArrow=none;html=1;rounded=0;entryX=0;entryY=0.5;entryDx=0;entryDy=0;exitX=1;exitY=0.5;exitDx=0;exitDy=0;" parent="1" source="cp8nzbBQbhLiMNm4tQ7m-74" target="0L8P7IHvLGYGfYm_Wr2v-1" edge="1">
          <mxGeometry width="50" height="50" relative="1" as="geometry">
            <mxPoint x="535" y="400" as="sourcePoint" />
            <mxPoint x="580" y="410" as="targetPoint" />
            <Array as="points" />
          </mxGeometry>
        </mxCell>
        <mxCell id="NyHtIuRuuXQ_OXRChrR5-58" value="&lt;u&gt;BeneficiaryID&lt;/u&gt;" style="ellipse;whiteSpace=wrap;html=1;fillColor=#dae8fc;strokeColor=#6c8ebf;" parent="1" vertex="1">
          <mxGeometry x="-1174" y="323" width="80" height="55" as="geometry" />
        </mxCell>
        <mxCell id="NyHtIuRuuXQ_OXRChrR5-59" value="bname" style="ellipse;whiteSpace=wrap;html=1;fillColor=#e1d5e7;strokeColor=#9673a6;" parent="1" vertex="1">
          <mxGeometry x="-1094" y="298" width="80" height="40" as="geometry" />
        </mxCell>
        <mxCell id="NyHtIuRuuXQ_OXRChrR5-60" value="AccountNum" style="ellipse;whiteSpace=wrap;html=1;fillColor=#dae8fc;strokeColor=#6c8ebf;" parent="1" vertex="1">
          <mxGeometry x="-1014" y="323" width="80" height="50" as="geometry" />
        </mxCell>
        <mxCell id="NyHtIuRuuXQ_OXRChrR5-61" value="" style="endArrow=none;html=1;rounded=0;entryX=1;entryY=1;entryDx=0;entryDy=0;exitX=0;exitY=0;exitDx=0;exitDy=0;" parent="1" target="NyHtIuRuuXQ_OXRChrR5-58" edge="1">
          <mxGeometry width="50" height="50" relative="1" as="geometry">
            <mxPoint x="-1094" y="393" as="sourcePoint" />
            <mxPoint x="-1124" y="633" as="targetPoint" />
          </mxGeometry>
        </mxCell>
        <mxCell id="NyHtIuRuuXQ_OXRChrR5-62" value="" style="endArrow=none;html=1;rounded=0;entryX=0.5;entryY=1;entryDx=0;entryDy=0;exitX=0.5;exitY=0;exitDx=0;exitDy=0;" parent="1" target="NyHtIuRuuXQ_OXRChrR5-59" edge="1">
          <mxGeometry width="50" height="50" relative="1" as="geometry">
            <mxPoint x="-1054" y="393" as="sourcePoint" />
            <mxPoint x="-1124" y="386" as="targetPoint" />
          </mxGeometry>
        </mxCell>
        <mxCell id="NyHtIuRuuXQ_OXRChrR5-63" value="" style="endArrow=none;html=1;rounded=0;entryX=0;entryY=1;entryDx=0;entryDy=0;exitX=0.75;exitY=0;exitDx=0;exitDy=0;" parent="1" target="NyHtIuRuuXQ_OXRChrR5-60" edge="1">
          <mxGeometry width="50" height="50" relative="1" as="geometry">
            <mxPoint x="-1019" y="393" as="sourcePoint" />
            <mxPoint x="-1073" y="347" as="targetPoint" />
          </mxGeometry>
        </mxCell>
        <mxCell id="NyHtIuRuuXQ_OXRChrR5-66" value="SourceCurrency" style="ellipse;whiteSpace=wrap;html=1;fillColor=#dae8fc;strokeColor=#6c8ebf;" parent="1" vertex="1">
          <mxGeometry x="-633" y="701" width="90" height="30" as="geometry" />
        </mxCell>
        <mxCell id="NyHtIuRuuXQ_OXRChrR5-68" value="TargetCurrency" style="ellipse;whiteSpace=wrap;html=1;fillColor=#dae8fc;strokeColor=#6c8ebf;" parent="1" vertex="1">
          <mxGeometry x="-743" y="696" width="90" height="35" as="geometry" />
        </mxCell>
        <mxCell id="NyHtIuRuuXQ_OXRChrR5-70" value="" style="endArrow=none;html=1;rounded=0;exitX=0.077;exitY=0.598;exitDx=0;exitDy=0;entryX=0.5;entryY=0;entryDx=0;entryDy=0;exitPerimeter=0;" parent="1" source="cp8nzbBQbhLiMNm4tQ7m-29" target="NyHtIuRuuXQ_OXRChrR5-68" edge="1">
          <mxGeometry width="50" height="50" relative="1" as="geometry">
            <mxPoint x="-718" y="701" as="sourcePoint" />
            <mxPoint x="-898" y="811" as="targetPoint" />
          </mxGeometry>
        </mxCell>
        <mxCell id="NyHtIuRuuXQ_OXRChrR5-71" value="" style="endArrow=none;html=1;rounded=0;entryX=0.5;entryY=0;entryDx=0;entryDy=0;exitX=1;exitY=1;exitDx=0;exitDy=0;" parent="1" source="cp8nzbBQbhLiMNm4tQ7m-29" target="NyHtIuRuuXQ_OXRChrR5-66" edge="1">
          <mxGeometry width="50" height="50" relative="1" as="geometry">
            <mxPoint x="-613" y="863" as="sourcePoint" />
            <mxPoint x="-56" y="591" as="targetPoint" />
          </mxGeometry>
        </mxCell>
        <mxCell id="NyHtIuRuuXQ_OXRChrR5-76" value="LastName" style="ellipse;whiteSpace=wrap;html=1;fillColor=#f5f5f5;fontColor=#333333;strokeColor=#666666;" parent="1" vertex="1">
          <mxGeometry x="-1044" y="233" width="60" height="40" as="geometry" />
        </mxCell>
        <mxCell id="NyHtIuRuuXQ_OXRChrR5-77" value="FirstName" style="ellipse;whiteSpace=wrap;html=1;fillColor=#f5f5f5;fontColor=#333333;strokeColor=#666666;" parent="1" vertex="1">
          <mxGeometry x="-1124" y="233" width="60" height="40" as="geometry" />
        </mxCell>
        <mxCell id="NyHtIuRuuXQ_OXRChrR5-78" value="" style="endArrow=none;html=1;rounded=0;exitX=0.5;exitY=1;exitDx=0;exitDy=0;" parent="1" source="NyHtIuRuuXQ_OXRChrR5-76" target="NyHtIuRuuXQ_OXRChrR5-59" edge="1">
          <mxGeometry width="50" height="50" relative="1" as="geometry">
            <mxPoint x="-814" y="323" as="sourcePoint" />
            <mxPoint x="-764" y="273" as="targetPoint" />
          </mxGeometry>
        </mxCell>
        <mxCell id="NyHtIuRuuXQ_OXRChrR5-79" value="" style="endArrow=none;html=1;rounded=0;exitX=0.652;exitY=0.97;exitDx=0;exitDy=0;exitPerimeter=0;entryX=0.34;entryY=0.031;entryDx=0;entryDy=0;entryPerimeter=0;" parent="1" source="NyHtIuRuuXQ_OXRChrR5-77" target="NyHtIuRuuXQ_OXRChrR5-59" edge="1">
          <mxGeometry width="50" height="50" relative="1" as="geometry">
            <mxPoint x="-1004" y="283" as="sourcePoint" />
            <mxPoint x="-1028" y="310" as="targetPoint" />
          </mxGeometry>
        </mxCell>
        <mxCell id="NyHtIuRuuXQ_OXRChrR5-80" value="LastName" style="ellipse;whiteSpace=wrap;html=1;fillColor=#f5f5f5;fontColor=#333333;strokeColor=#666666;" parent="1" vertex="1">
          <mxGeometry x="-480" y="250" width="60" height="40" as="geometry" />
        </mxCell>
        <mxCell id="NyHtIuRuuXQ_OXRChrR5-81" value="FirstName" style="ellipse;whiteSpace=wrap;html=1;fillColor=#f5f5f5;fontColor=#333333;strokeColor=#666666;" parent="1" vertex="1">
          <mxGeometry x="-530" y="285" width="60" height="40" as="geometry" />
        </mxCell>
        <mxCell id="NyHtIuRuuXQ_OXRChrR5-82" value="" style="endArrow=none;html=1;rounded=0;exitX=0.5;exitY=1;exitDx=0;exitDy=0;entryX=0;entryY=0;entryDx=0;entryDy=0;" parent="1" source="NyHtIuRuuXQ_OXRChrR5-80" target="KYh0tj7lqW5dZ13TWYTu-2" edge="1">
          <mxGeometry width="50" height="50" relative="1" as="geometry">
            <mxPoint x="-260" y="333" as="sourcePoint" />
            <mxPoint x="-484" y="310" as="targetPoint" />
          </mxGeometry>
        </mxCell>
        <mxCell id="NyHtIuRuuXQ_OXRChrR5-83" value="" style="endArrow=none;html=1;rounded=0;exitX=1;exitY=1;exitDx=0;exitDy=0;entryX=0;entryY=0.5;entryDx=0;entryDy=0;" parent="1" source="NyHtIuRuuXQ_OXRChrR5-81" target="KYh0tj7lqW5dZ13TWYTu-2" edge="1">
          <mxGeometry width="50" height="50" relative="1" as="geometry">
            <mxPoint x="-450" y="293" as="sourcePoint" />
            <mxPoint x="-513" y="309" as="targetPoint" />
          </mxGeometry>
        </mxCell>
        <mxCell id="NyHtIuRuuXQ_OXRChrR5-84" value="Street" style="ellipse;whiteSpace=wrap;html=1;fillColor=#f5f5f5;fontColor=#333333;strokeColor=#666666;" parent="1" vertex="1">
          <mxGeometry x="-260" y="317.5" width="60" height="25" as="geometry" />
        </mxCell>
        <mxCell id="NyHtIuRuuXQ_OXRChrR5-85" value="ZipCode" style="ellipse;whiteSpace=wrap;html=1;fillColor=#f5f5f5;fontColor=#333333;strokeColor=#666666;" parent="1" vertex="1">
          <mxGeometry x="-240" y="275" width="60" height="40" as="geometry" />
        </mxCell>
        <mxCell id="NyHtIuRuuXQ_OXRChrR5-86" value="" style="endArrow=none;html=1;rounded=0;exitX=0;exitY=0.5;exitDx=0;exitDy=0;entryX=1;entryY=0.5;entryDx=0;entryDy=0;" parent="1" source="NyHtIuRuuXQ_OXRChrR5-84" target="KYh0tj7lqW5dZ13TWYTu-3" edge="1">
          <mxGeometry width="50" height="50" relative="1" as="geometry">
            <mxPoint x="40" y="333" as="sourcePoint" />
            <mxPoint x="-184" y="310" as="targetPoint" />
          </mxGeometry>
        </mxCell>
        <mxCell id="NyHtIuRuuXQ_OXRChrR5-87" value="" style="endArrow=none;html=1;rounded=0;exitX=0;exitY=0.5;exitDx=0;exitDy=0;entryX=1;entryY=0;entryDx=0;entryDy=0;" parent="1" source="NyHtIuRuuXQ_OXRChrR5-85" target="KYh0tj7lqW5dZ13TWYTu-3" edge="1">
          <mxGeometry width="50" height="50" relative="1" as="geometry">
            <mxPoint x="-150" y="293" as="sourcePoint" />
            <mxPoint x="-213" y="309" as="targetPoint" />
          </mxGeometry>
        </mxCell>
        <mxCell id="NyHtIuRuuXQ_OXRChrR5-88" value="City" style="ellipse;whiteSpace=wrap;html=1;fillColor=#f5f5f5;fontColor=#333333;strokeColor=#666666;" parent="1" vertex="1">
          <mxGeometry x="-250" y="230" width="60" height="40" as="geometry" />
        </mxCell>
        <mxCell id="NyHtIuRuuXQ_OXRChrR5-89" value="Country" style="ellipse;whiteSpace=wrap;html=1;fillColor=#f5f5f5;fontColor=#333333;strokeColor=#666666;" parent="1" vertex="1">
          <mxGeometry x="-310" y="210" width="60" height="40" as="geometry" />
        </mxCell>
        <mxCell id="NyHtIuRuuXQ_OXRChrR5-90" value="" style="endArrow=none;html=1;rounded=0;exitX=0;exitY=1;exitDx=0;exitDy=0;" parent="1" source="NyHtIuRuuXQ_OXRChrR5-88" target="KYh0tj7lqW5dZ13TWYTu-3" edge="1">
          <mxGeometry width="50" height="50" relative="1" as="geometry">
            <mxPoint x="-20" y="253" as="sourcePoint" />
            <mxPoint x="-320" y="240" as="targetPoint" />
            <Array as="points" />
          </mxGeometry>
        </mxCell>
        <mxCell id="NyHtIuRuuXQ_OXRChrR5-91" value="" style="endArrow=none;html=1;rounded=0;exitX=0.5;exitY=1;exitDx=0;exitDy=0;" parent="1" source="NyHtIuRuuXQ_OXRChrR5-89" target="KYh0tj7lqW5dZ13TWYTu-3" edge="1">
          <mxGeometry width="50" height="50" relative="1" as="geometry">
            <mxPoint x="-210" y="213" as="sourcePoint" />
            <mxPoint x="-329" y="226" as="targetPoint" />
          </mxGeometry>
        </mxCell>
        <mxCell id="NyHtIuRuuXQ_OXRChrR5-92" value="Age" style="ellipse;whiteSpace=wrap;html=1;dashed=1;" parent="1" vertex="1">
          <mxGeometry x="-430" y="455" width="60" height="40" as="geometry" />
        </mxCell>
        <mxCell id="NyHtIuRuuXQ_OXRChrR5-93" value="" style="endArrow=none;html=1;rounded=0;entryX=0.5;entryY=0;entryDx=0;entryDy=0;exitX=0.25;exitY=1;exitDx=0;exitDy=0;" parent="1" source="cp8nzbBQbhLiMNm4tQ7m-1" target="NyHtIuRuuXQ_OXRChrR5-92" edge="1">
          <mxGeometry width="50" height="50" relative="1" as="geometry">
            <mxPoint x="-400" y="440" as="sourcePoint" />
            <mxPoint x="-439" y="446" as="targetPoint" />
          </mxGeometry>
        </mxCell>
        <mxCell id="NyHtIuRuuXQ_OXRChrR5-95" value="" style="endArrow=none;html=1;rounded=0;entryX=0.5;entryY=0;entryDx=0;entryDy=0;exitX=0.75;exitY=1;exitDx=0;exitDy=0;" parent="1" source="NyHtIuRuuXQ_OXRChrR5-96" edge="1">
          <mxGeometry width="50" height="50" relative="1" as="geometry">
            <mxPoint x="-335" y="430" as="sourcePoint" />
            <mxPoint x="-327.5" y="470" as="targetPoint" />
          </mxGeometry>
        </mxCell>
        <mxCell id="NyHtIuRuuXQ_OXRChrR5-97" value="" style="endArrow=none;html=1;rounded=0;entryX=0.5;entryY=0;entryDx=0;entryDy=0;exitX=0.75;exitY=1;exitDx=0;exitDy=0;" parent="1" source="cp8nzbBQbhLiMNm4tQ7m-1" target="NyHtIuRuuXQ_OXRChrR5-96" edge="1">
          <mxGeometry width="50" height="50" relative="1" as="geometry">
            <mxPoint x="-335" y="430" as="sourcePoint" />
            <mxPoint x="-327.5" y="470" as="targetPoint" />
          </mxGeometry>
        </mxCell>
        <mxCell id="NyHtIuRuuXQ_OXRChrR5-96" value="cphone" style="ellipse;shape=doubleEllipse;margin=3;whiteSpace=wrap;html=1;align=center;fillColor=#fff2cc;strokeColor=#d6b656;" parent="1" vertex="1">
          <mxGeometry x="-350" y="460" width="60" height="30" as="geometry" />
        </mxCell>
        <mxCell id="NyHtIuRuuXQ_OXRChrR5-98" value="" style="shape=flexArrow;endArrow=classic;html=1;rounded=0;exitX=1;exitY=0.5;exitDx=0;exitDy=0;entryX=0;entryY=0.5;entryDx=0;entryDy=0;" parent="1" source="cp8nzbBQbhLiMNm4tQ7m-26" target="cp8nzbBQbhLiMNm4tQ7m-27" edge="1">
          <mxGeometry width="50" height="50" relative="1" as="geometry">
            <mxPoint x="-510" y="430" as="sourcePoint" />
            <mxPoint x="-460" y="380" as="targetPoint" />
          </mxGeometry>
        </mxCell>
        <mxCell id="NyHtIuRuuXQ_OXRChrR5-101" value="" style="shape=flexArrow;endArrow=classic;html=1;rounded=0;exitX=1;exitY=0.5;exitDx=0;exitDy=0;entryX=0;entryY=0.5;entryDx=0;entryDy=0;" parent="1" source="cp8nzbBQbhLiMNm4tQ7m-8" target="cp8nzbBQbhLiMNm4tQ7m-62" edge="1">
          <mxGeometry width="50" height="50" relative="1" as="geometry">
            <mxPoint x="-400" y="681" as="sourcePoint" />
            <mxPoint x="-630" y="681" as="targetPoint" />
          </mxGeometry>
        </mxCell>
        <mxCell id="NyHtIuRuuXQ_OXRChrR5-102" value="" style="shape=flexArrow;endArrow=classic;html=1;rounded=0;exitX=0;exitY=0.5;exitDx=0;exitDy=0;entryX=1;entryY=0.5;entryDx=0;entryDy=0;" parent="1" source="cp8nzbBQbhLiMNm4tQ7m-6" target="cp8nzbBQbhLiMNm4tQ7m-3" edge="1">
          <mxGeometry width="50" height="50" relative="1" as="geometry">
            <mxPoint x="-390" y="690" as="sourcePoint" />
            <mxPoint x="-620" y="690" as="targetPoint" />
          </mxGeometry>
        </mxCell>
        <mxCell id="NyHtIuRuuXQ_OXRChrR5-103" value="" style="shape=flexArrow;endArrow=classic;html=1;rounded=0;exitX=0.5;exitY=1;exitDx=0;exitDy=0;entryX=0.5;entryY=0;entryDx=0;entryDy=0;" parent="1" source="cp8nzbBQbhLiMNm4tQ7m-91" target="cp8nzbBQbhLiMNm4tQ7m-89" edge="1">
          <mxGeometry width="50" height="50" relative="1" as="geometry">
            <mxPoint x="-640" y="420" as="sourcePoint" />
            <mxPoint x="-590" y="420" as="targetPoint" />
          </mxGeometry>
        </mxCell>
        <mxCell id="NyHtIuRuuXQ_OXRChrR5-105" value="" style="shape=flexArrow;endArrow=classic;html=1;rounded=0;exitX=0.25;exitY=1;exitDx=0;exitDy=0;entryX=0.5;entryY=0;entryDx=0;entryDy=0;" parent="1" edge="1">
          <mxGeometry width="50" height="50" relative="1" as="geometry">
            <mxPoint x="-391" y="691" as="sourcePoint" />
            <mxPoint x="-750" y="970" as="targetPoint" />
            <Array as="points">
              <mxPoint x="-391" y="840" />
              <mxPoint x="-750" y="840" />
            </Array>
          </mxGeometry>
        </mxCell>
        <mxCell id="NyHtIuRuuXQ_OXRChrR5-106" value="" style="shape=flexArrow;endArrow=classic;html=1;rounded=0;exitX=0;exitY=0.5;exitDx=0;exitDy=0;entryX=1;entryY=0.5;entryDx=0;entryDy=0;" parent="1" source="cp8nzbBQbhLiMNm4tQ7m-32" target="cp8nzbBQbhLiMNm4tQ7m-33" edge="1">
          <mxGeometry width="50" height="50" relative="1" as="geometry">
            <mxPoint x="-90" y="1373" as="sourcePoint" />
            <mxPoint y="1373" as="targetPoint" />
          </mxGeometry>
        </mxCell>
        <mxCell id="NyHtIuRuuXQ_OXRChrR5-107" value="" style="shape=flexArrow;endArrow=classic;html=1;rounded=0;exitX=0.5;exitY=0;exitDx=0;exitDy=0;entryX=0.5;entryY=1;entryDx=0;entryDy=0;" parent="1" source="NyHtIuRuuXQ_OXRChrR5-11" target="NyHtIuRuuXQ_OXRChrR5-13" edge="1">
          <mxGeometry width="50" height="50" relative="1" as="geometry">
            <mxPoint x="322.5" y="1113" as="sourcePoint" />
            <mxPoint x="192.5" y="1443" as="targetPoint" />
          </mxGeometry>
        </mxCell>
        <mxCell id="NyHtIuRuuXQ_OXRChrR5-114" value="City" style="ellipse;whiteSpace=wrap;html=1;fillColor=#f5f5f5;strokeColor=#666666;fontColor=#333333;" parent="1" vertex="1">
          <mxGeometry x="-210" y="1373" width="60" height="40" as="geometry" />
        </mxCell>
        <mxCell id="NyHtIuRuuXQ_OXRChrR5-115" value="Country" style="ellipse;whiteSpace=wrap;html=1;fillColor=#f5f5f5;strokeColor=#666666;fontColor=#333333;" parent="1" vertex="1">
          <mxGeometry x="-260" y="1423" width="60" height="40" as="geometry" />
        </mxCell>
        <mxCell id="NyHtIuRuuXQ_OXRChrR5-116" value="" style="endArrow=none;html=1;rounded=0;exitX=0;exitY=0;exitDx=0;exitDy=0;entryX=1;entryY=1;entryDx=0;entryDy=0;" parent="1" source="NyHtIuRuuXQ_OXRChrR5-115" target="KYh0tj7lqW5dZ13TWYTu-50" edge="1">
          <mxGeometry width="50" height="50" relative="1" as="geometry">
            <mxPoint x="-400" y="1393" as="sourcePoint" />
            <mxPoint x="-263" y="1404" as="targetPoint" />
          </mxGeometry>
        </mxCell>
        <mxCell id="NyHtIuRuuXQ_OXRChrR5-117" value="" style="endArrow=none;html=1;rounded=0;exitX=0;exitY=0.5;exitDx=0;exitDy=0;entryX=1;entryY=0.5;entryDx=0;entryDy=0;" parent="1" source="NyHtIuRuuXQ_OXRChrR5-114" edge="1">
          <mxGeometry width="50" height="50" relative="1" as="geometry">
            <mxPoint x="-241" y="1449" as="sourcePoint" />
            <mxPoint x="-250" y="1383" as="targetPoint" />
          </mxGeometry>
        </mxCell>
        <mxCell id="NQ980aSsCJvNuDoRZY3Y-1" value="Loan" style="whiteSpace=wrap;html=1;align=center;fillColor=#ffe6cc;strokeColor=#d79b00;" parent="1" vertex="1">
          <mxGeometry x="-140" y="120" width="100" height="40" as="geometry" />
        </mxCell>
        <mxCell id="NQ980aSsCJvNuDoRZY3Y-2" value="Borrows" style="shape=rhombus;perimeter=rhombusPerimeter;whiteSpace=wrap;html=1;align=center;fillColor=#d5e8d4;strokeColor=#82b366;shadow=1;" parent="1" vertex="1">
          <mxGeometry x="-150" y="220" width="120" height="60" as="geometry" />
        </mxCell>
        <mxCell id="NQ980aSsCJvNuDoRZY3Y-3" value="" style="shape=flexArrow;endArrow=classic;html=1;rounded=0;exitX=0.5;exitY=1;exitDx=0;exitDy=0;entryX=0.5;entryY=0;entryDx=0;entryDy=0;shadow=1;" parent="1" source="NQ980aSsCJvNuDoRZY3Y-1" target="NQ980aSsCJvNuDoRZY3Y-2" edge="1">
          <mxGeometry width="50" height="50" relative="1" as="geometry">
            <mxPoint x="-350" y="170" as="sourcePoint" />
            <mxPoint x="-350" y="240" as="targetPoint" />
          </mxGeometry>
        </mxCell>
        <mxCell id="NQ980aSsCJvNuDoRZY3Y-4" value="" style="endArrow=none;html=1;rounded=0;startSize=14;endSize=14;sourcePerimeterSpacing=8;targetPerimeterSpacing=8;curved=1;exitX=1;exitY=0.25;exitDx=0;exitDy=0;entryX=0.5;entryY=1;entryDx=0;entryDy=0;" parent="1" source="cp8nzbBQbhLiMNm4tQ7m-1" target="NQ980aSsCJvNuDoRZY3Y-2" edge="1">
          <mxGeometry relative="1" as="geometry">
            <mxPoint x="-140" y="350" as="sourcePoint" />
            <mxPoint x="20" y="350" as="targetPoint" />
          </mxGeometry>
        </mxCell>
        <mxCell id="NQ980aSsCJvNuDoRZY3Y-6" value="DateTaken" style="ellipse;whiteSpace=wrap;html=1;align=center;fillColor=#dae8fc;strokeColor=#6c8ebf;" parent="1" vertex="1">
          <mxGeometry x="-20" y="215" width="65" height="30" as="geometry" />
        </mxCell>
        <mxCell id="NQ980aSsCJvNuDoRZY3Y-7" value="LoanID" style="ellipse;whiteSpace=wrap;html=1;align=center;fontStyle=4;fillColor=#dae8fc;strokeColor=#6c8ebf;" parent="1" vertex="1">
          <mxGeometry x="-217.5" y="115" width="60" height="25" as="geometry" />
        </mxCell>
        <mxCell id="NQ980aSsCJvNuDoRZY3Y-8" value="" style="endArrow=none;html=1;rounded=0;startSize=14;endSize=14;sourcePerimeterSpacing=8;targetPerimeterSpacing=8;curved=1;exitX=0;exitY=0.5;exitDx=0;exitDy=0;entryX=0.75;entryY=1;entryDx=0;entryDy=0;" parent="1" source="NQ980aSsCJvNuDoRZY3Y-6" target="NQ980aSsCJvNuDoRZY3Y-1" edge="1">
          <mxGeometry relative="1" as="geometry">
            <mxPoint y="160" as="sourcePoint" />
            <mxPoint x="160" y="160" as="targetPoint" />
          </mxGeometry>
        </mxCell>
        <mxCell id="NQ980aSsCJvNuDoRZY3Y-9" value="" style="endArrow=none;html=1;rounded=0;startSize=14;endSize=14;sourcePerimeterSpacing=8;targetPerimeterSpacing=8;curved=1;exitX=1;exitY=1;exitDx=0;exitDy=0;entryX=0;entryY=0;entryDx=0;entryDy=0;" parent="1" source="NQ980aSsCJvNuDoRZY3Y-7" target="NQ980aSsCJvNuDoRZY3Y-1" edge="1">
          <mxGeometry relative="1" as="geometry">
            <mxPoint x="50" y="120" as="sourcePoint" />
            <mxPoint x="210" y="120" as="targetPoint" />
          </mxGeometry>
        </mxCell>
        <mxCell id="NQ980aSsCJvNuDoRZY3Y-10" value="InterestRate" style="ellipse;whiteSpace=wrap;html=1;align=center;fillColor=#dae8fc;strokeColor=#6c8ebf;" parent="1" vertex="1">
          <mxGeometry x="-30" y="92.5" width="82.5" height="30" as="geometry" />
        </mxCell>
        <mxCell id="NQ980aSsCJvNuDoRZY3Y-11" value="amount" style="ellipse;whiteSpace=wrap;html=1;align=center;fillColor=#dae8fc;strokeColor=#6c8ebf;" parent="1" vertex="1">
          <mxGeometry x="-200" y="160" width="60" height="40" as="geometry" />
        </mxCell>
        <mxCell id="NQ980aSsCJvNuDoRZY3Y-12" value="" style="endArrow=none;html=1;rounded=0;startSize=14;endSize=14;sourcePerimeterSpacing=8;targetPerimeterSpacing=8;curved=1;exitX=0;exitY=0.5;exitDx=0;exitDy=0;entryX=1;entryY=0;entryDx=0;entryDy=0;" parent="1" source="NQ980aSsCJvNuDoRZY3Y-10" target="NQ980aSsCJvNuDoRZY3Y-1" edge="1">
          <mxGeometry relative="1" as="geometry">
            <mxPoint x="10" y="180" as="sourcePoint" />
            <mxPoint x="170" y="180" as="targetPoint" />
          </mxGeometry>
        </mxCell>
        <mxCell id="NQ980aSsCJvNuDoRZY3Y-15" value="" style="endArrow=none;html=1;rounded=0;startSize=14;endSize=14;sourcePerimeterSpacing=8;targetPerimeterSpacing=8;curved=1;exitX=1;exitY=0;exitDx=0;exitDy=0;entryX=0;entryY=1;entryDx=0;entryDy=0;" parent="1" source="NQ980aSsCJvNuDoRZY3Y-11" target="NQ980aSsCJvNuDoRZY3Y-1" edge="1">
          <mxGeometry relative="1" as="geometry">
            <mxPoint x="-200" y="170" as="sourcePoint" />
            <mxPoint x="-40" y="170" as="targetPoint" />
          </mxGeometry>
        </mxCell>
        <mxCell id="NQ980aSsCJvNuDoRZY3Y-16" value="ISA" style="triangle;whiteSpace=wrap;html=1;rotation=-90;shadow=1;" parent="1" vertex="1">
          <mxGeometry x="-110" y="45" width="40" height="45" as="geometry" />
        </mxCell>
        <mxCell id="NQ980aSsCJvNuDoRZY3Y-18" value="" style="endArrow=none;html=1;rounded=0;startSize=14;endSize=14;sourcePerimeterSpacing=8;targetPerimeterSpacing=8;curved=1;exitX=0;exitY=0.5;exitDx=0;exitDy=0;entryX=0.5;entryY=0;entryDx=0;entryDy=0;" parent="1" source="NQ980aSsCJvNuDoRZY3Y-16" target="NQ980aSsCJvNuDoRZY3Y-1" edge="1">
          <mxGeometry relative="1" as="geometry">
            <mxPoint x="-60" y="110" as="sourcePoint" />
            <mxPoint x="100" y="110" as="targetPoint" />
          </mxGeometry>
        </mxCell>
        <mxCell id="NQ980aSsCJvNuDoRZY3Y-19" value="HomeLoan" style="whiteSpace=wrap;html=1;align=center;fillColor=#ffe6cc;strokeColor=#d79b00;" parent="1" vertex="1">
          <mxGeometry x="-222.5" y="-20" width="65" height="30" as="geometry" />
        </mxCell>
        <mxCell id="NQ980aSsCJvNuDoRZY3Y-20" value="StudenLoan" style="whiteSpace=wrap;html=1;align=center;fillColor=#ffe6cc;strokeColor=#d79b00;" parent="1" vertex="1">
          <mxGeometry x="-125" y="-20" width="70" height="30" as="geometry" />
        </mxCell>
        <mxCell id="NQ980aSsCJvNuDoRZY3Y-21" value="PersonalLoan" style="whiteSpace=wrap;html=1;align=center;fillColor=#ffe6cc;strokeColor=#d79b00;" parent="1" vertex="1">
          <mxGeometry y="10" width="80" height="30" as="geometry" />
        </mxCell>
        <mxCell id="NQ980aSsCJvNuDoRZY3Y-23" value="" style="endArrow=none;html=1;rounded=0;startSize=14;endSize=14;sourcePerimeterSpacing=8;targetPerimeterSpacing=8;curved=1;exitX=0.5;exitY=1;exitDx=0;exitDy=0;entryX=0.5;entryY=0;entryDx=0;entryDy=0;" parent="1" source="NQ980aSsCJvNuDoRZY3Y-19" target="NQ980aSsCJvNuDoRZY3Y-16" edge="1">
          <mxGeometry relative="1" as="geometry">
            <mxPoint x="-70" y="40" as="sourcePoint" />
            <mxPoint x="90" y="40" as="targetPoint" />
          </mxGeometry>
        </mxCell>
        <mxCell id="NQ980aSsCJvNuDoRZY3Y-24" value="" style="endArrow=none;html=1;rounded=0;startSize=14;endSize=14;sourcePerimeterSpacing=8;targetPerimeterSpacing=8;curved=1;exitX=0.5;exitY=1;exitDx=0;exitDy=0;entryX=1;entryY=0.5;entryDx=0;entryDy=0;" parent="1" source="NQ980aSsCJvNuDoRZY3Y-20" target="NQ980aSsCJvNuDoRZY3Y-16" edge="1">
          <mxGeometry relative="1" as="geometry">
            <mxPoint x="-60" y="50" as="sourcePoint" />
            <mxPoint x="100" y="50" as="targetPoint" />
          </mxGeometry>
        </mxCell>
        <mxCell id="NQ980aSsCJvNuDoRZY3Y-25" value="" style="endArrow=none;html=1;rounded=0;startSize=14;endSize=14;sourcePerimeterSpacing=8;targetPerimeterSpacing=8;curved=1;exitX=0.5;exitY=1;exitDx=0;exitDy=0;entryX=0.5;entryY=1;entryDx=0;entryDy=0;" parent="1" source="NQ980aSsCJvNuDoRZY3Y-16" target="NQ980aSsCJvNuDoRZY3Y-21" edge="1">
          <mxGeometry relative="1" as="geometry">
            <mxPoint x="-20" y="60" as="sourcePoint" />
            <mxPoint x="140" y="60" as="targetPoint" />
          </mxGeometry>
        </mxCell>
        <mxCell id="NQ980aSsCJvNuDoRZY3Y-32" value="Creditscore" style="ellipse;whiteSpace=wrap;html=1;align=center;fillColor=#dae8fc;strokeColor=#6c8ebf;" parent="1" vertex="1">
          <mxGeometry x="76" y="-50" width="75" height="30" as="geometry" />
        </mxCell>
        <mxCell id="NQ980aSsCJvNuDoRZY3Y-33" value="" style="endArrow=none;html=1;rounded=0;startSize=14;endSize=14;sourcePerimeterSpacing=8;targetPerimeterSpacing=8;curved=1;exitX=0.5;exitY=0;exitDx=0;exitDy=0;entryX=0.5;entryY=1;entryDx=0;entryDy=0;" parent="1" source="NQ980aSsCJvNuDoRZY3Y-21" target="NQ980aSsCJvNuDoRZY3Y-32" edge="1">
          <mxGeometry relative="1" as="geometry">
            <mxPoint x="80" y="10" as="sourcePoint" />
            <mxPoint x="240" y="10" as="targetPoint" />
          </mxGeometry>
        </mxCell>
        <mxCell id="NQ980aSsCJvNuDoRZY3Y-35" value="UniversityInfo" style="ellipse;whiteSpace=wrap;html=1;align=center;fillColor=#dae8fc;strokeColor=#6c8ebf;" parent="1" vertex="1">
          <mxGeometry x="-130" y="-70" width="80" height="30" as="geometry" />
        </mxCell>
        <mxCell id="NQ980aSsCJvNuDoRZY3Y-36" value="" style="endArrow=none;html=1;rounded=0;startSize=14;endSize=14;sourcePerimeterSpacing=8;targetPerimeterSpacing=8;curved=1;exitX=0.5;exitY=1;exitDx=0;exitDy=0;entryX=0.5;entryY=0;entryDx=0;entryDy=0;" parent="1" source="NQ980aSsCJvNuDoRZY3Y-35" target="NQ980aSsCJvNuDoRZY3Y-20" edge="1">
          <mxGeometry relative="1" as="geometry">
            <mxPoint x="-60" y="30" as="sourcePoint" />
            <mxPoint x="-40" y="-30" as="targetPoint" />
          </mxGeometry>
        </mxCell>
        <mxCell id="NQ980aSsCJvNuDoRZY3Y-37" value="Max amount" style="ellipse;whiteSpace=wrap;html=1;align=center;fillColor=#dae8fc;strokeColor=#6c8ebf;" parent="1" vertex="1">
          <mxGeometry x="-30" y="160" width="75" height="30" as="geometry" />
        </mxCell>
        <mxCell id="NQ980aSsCJvNuDoRZY3Y-38" value="" style="endArrow=none;html=1;rounded=0;startSize=14;endSize=14;sourcePerimeterSpacing=8;targetPerimeterSpacing=8;curved=1;entryX=1;entryY=1;entryDx=0;entryDy=0;exitX=0;exitY=0.5;exitDx=0;exitDy=0;" parent="1" source="NQ980aSsCJvNuDoRZY3Y-37" target="NQ980aSsCJvNuDoRZY3Y-1" edge="1">
          <mxGeometry relative="1" as="geometry">
            <mxPoint x="20" y="200" as="sourcePoint" />
            <mxPoint x="-5" y="220" as="targetPoint" />
          </mxGeometry>
        </mxCell>
        <mxCell id="NQ980aSsCJvNuDoRZY3Y-40" value="" style="endArrow=none;html=1;rounded=0;startSize=14;endSize=14;sourcePerimeterSpacing=8;targetPerimeterSpacing=8;curved=1;exitX=0.5;exitY=1;exitDx=0;exitDy=0;entryX=0;entryY=0;entryDx=0;entryDy=0;" parent="1" source="NQ980aSsCJvNuDoRZY3Y-42" target="NQ980aSsCJvNuDoRZY3Y-19" edge="1">
          <mxGeometry relative="1" as="geometry">
            <mxPoint x="-255" y="-35" as="sourcePoint" />
            <mxPoint x="-110" y="-10" as="targetPoint" />
          </mxGeometry>
        </mxCell>
        <mxCell id="NQ980aSsCJvNuDoRZY3Y-42" value="Property type" style="ellipse;whiteSpace=wrap;html=1;align=center;fillColor=#dae8fc;strokeColor=#6c8ebf;" parent="1" vertex="1">
          <mxGeometry x="-340" y="-60" width="80" height="30" as="geometry" />
        </mxCell>
        <mxCell id="NQ980aSsCJvNuDoRZY3Y-44" value="" style="endArrow=none;html=1;rounded=0;startSize=14;endSize=14;sourcePerimeterSpacing=8;targetPerimeterSpacing=8;curved=1;entryX=0.5;entryY=0;entryDx=0;entryDy=0;exitX=0.5;exitY=1;exitDx=0;exitDy=0;" parent="1" source="NQ980aSsCJvNuDoRZY3Y-45" target="NQ980aSsCJvNuDoRZY3Y-19" edge="1">
          <mxGeometry relative="1" as="geometry">
            <mxPoint x="-200" y="-60" as="sourcePoint" />
            <mxPoint x="-90" y="-70" as="targetPoint" />
          </mxGeometry>
        </mxCell>
        <mxCell id="NQ980aSsCJvNuDoRZY3Y-45" value="PropertyAppraisal" style="ellipse;whiteSpace=wrap;html=1;align=center;fillColor=#dae8fc;strokeColor=#6c8ebf;" parent="1" vertex="1">
          <mxGeometry x="-240" y="-70" width="100" height="30" as="geometry" />
        </mxCell>
        <mxCell id="NQ980aSsCJvNuDoRZY3Y-49" value="CryptoNews" style="rounded=1;arcSize=10;whiteSpace=wrap;html=1;align=center;fillColor=#ffe6cc;strokeColor=#d79b00;" parent="1" vertex="1">
          <mxGeometry x="450" y="641" width="100" height="40" as="geometry" />
        </mxCell>
        <mxCell id="NQ980aSsCJvNuDoRZY3Y-50" value="" style="endArrow=none;html=1;rounded=0;startSize=14;endSize=14;sourcePerimeterSpacing=8;targetPerimeterSpacing=8;curved=1;entryX=0.5;entryY=0;entryDx=0;entryDy=0;exitX=0.5;exitY=1;exitDx=0;exitDy=0;" parent="1" source="mkfZO-Kcm251w3EHjNu_-1" target="NQ980aSsCJvNuDoRZY3Y-49" edge="1">
          <mxGeometry relative="1" as="geometry">
            <mxPoint x="500" y="600" as="sourcePoint" />
            <mxPoint x="690" y="630" as="targetPoint" />
          </mxGeometry>
        </mxCell>
        <mxCell id="NQ980aSsCJvNuDoRZY3Y-53" value="works in" style="shape=rhombus;perimeter=rhombusPerimeter;whiteSpace=wrap;html=1;align=center;fillColor=#d5e8d4;strokeColor=#82b366;shadow=1;" parent="1" vertex="1">
          <mxGeometry x="180" y="1303" width="120" height="40" as="geometry" />
        </mxCell>
        <mxCell id="NQ980aSsCJvNuDoRZY3Y-54" value="" style="endArrow=none;html=1;rounded=0;sourcePerimeterSpacing=8;targetPerimeterSpacing=8;curved=1;entryX=0;entryY=0.5;entryDx=0;entryDy=0;exitX=1;exitY=0.5;exitDx=0;exitDy=0;shape=link;" parent="1" source="cp8nzbBQbhLiMNm4tQ7m-32" target="NQ980aSsCJvNuDoRZY3Y-53" edge="1">
          <mxGeometry relative="1" as="geometry">
            <mxPoint x="110" y="1323" as="sourcePoint" />
            <mxPoint x="390" y="1343" as="targetPoint" />
          </mxGeometry>
        </mxCell>
        <mxCell id="NQ980aSsCJvNuDoRZY3Y-55" value="Department" style="whiteSpace=wrap;html=1;align=center;fillColor=#ffe6cc;strokeColor=#d79b00;" parent="1" vertex="1">
          <mxGeometry x="449" y="1408" width="100" height="40" as="geometry" />
        </mxCell>
        <mxCell id="NQ980aSsCJvNuDoRZY3Y-56" value="" style="endArrow=none;html=1;rounded=0;sourcePerimeterSpacing=8;targetPerimeterSpacing=8;curved=1;exitX=1;exitY=0.5;exitDx=0;exitDy=0;entryX=0.25;entryY=0;entryDx=0;entryDy=0;shape=link;" parent="1" source="NQ980aSsCJvNuDoRZY3Y-53" target="NQ980aSsCJvNuDoRZY3Y-55" edge="1">
          <mxGeometry relative="1" as="geometry">
            <mxPoint x="360" y="1213" as="sourcePoint" />
            <mxPoint x="520" y="1213" as="targetPoint" />
            <Array as="points">
              <mxPoint x="474" y="1323" />
            </Array>
          </mxGeometry>
        </mxCell>
        <mxCell id="NQ980aSsCJvNuDoRZY3Y-57" value="NewsID" style="ellipse;whiteSpace=wrap;html=1;align=center;fontStyle=4;fillColor=#dae8fc;strokeColor=#6c8ebf;" parent="1" vertex="1">
          <mxGeometry x="375" y="681" width="70" height="30" as="geometry" />
        </mxCell>
        <mxCell id="NQ980aSsCJvNuDoRZY3Y-58" value="" style="endArrow=none;html=1;rounded=0;startSize=14;endSize=14;sourcePerimeterSpacing=8;targetPerimeterSpacing=8;curved=1;exitX=0;exitY=1;exitDx=0;exitDy=0;entryX=1;entryY=0.5;entryDx=0;entryDy=0;" parent="1" source="NQ980aSsCJvNuDoRZY3Y-49" target="NQ980aSsCJvNuDoRZY3Y-57" edge="1">
          <mxGeometry relative="1" as="geometry">
            <mxPoint x="600" y="711" as="sourcePoint" />
            <mxPoint x="760" y="711" as="targetPoint" />
          </mxGeometry>
        </mxCell>
        <mxCell id="NQ980aSsCJvNuDoRZY3Y-65" value="NewsSymbol" style="ellipse;whiteSpace=wrap;html=1;fillColor=#dae8fc;strokeColor=#6c8ebf;" parent="1" vertex="1">
          <mxGeometry x="370" y="600" width="90" height="40" as="geometry" />
        </mxCell>
        <mxCell id="NQ980aSsCJvNuDoRZY3Y-66" value="" style="endArrow=none;html=1;rounded=0;entryX=1;entryY=1;entryDx=0;entryDy=0;exitX=0;exitY=0;exitDx=0;exitDy=0;" parent="1" source="NQ980aSsCJvNuDoRZY3Y-49" target="NQ980aSsCJvNuDoRZY3Y-65" edge="1">
          <mxGeometry width="50" height="50" relative="1" as="geometry">
            <mxPoint x="535" y="400" as="sourcePoint" />
            <mxPoint x="520" y="380" as="targetPoint" />
            <Array as="points" />
          </mxGeometry>
        </mxCell>
        <mxCell id="NQ980aSsCJvNuDoRZY3Y-67" value="Publicationdate" style="ellipse;whiteSpace=wrap;html=1;fillColor=#dae8fc;strokeColor=#6c8ebf;" parent="1" vertex="1">
          <mxGeometry x="550" y="600" width="100" height="40" as="geometry" />
        </mxCell>
        <mxCell id="NQ980aSsCJvNuDoRZY3Y-68" value="" style="endArrow=none;html=1;rounded=0;entryX=0;entryY=1;entryDx=0;entryDy=0;exitX=1;exitY=0;exitDx=0;exitDy=0;" parent="1" source="NQ980aSsCJvNuDoRZY3Y-49" target="NQ980aSsCJvNuDoRZY3Y-67" edge="1">
          <mxGeometry width="50" height="50" relative="1" as="geometry">
            <mxPoint x="545" y="410" as="sourcePoint" />
            <mxPoint x="530" y="390" as="targetPoint" />
            <Array as="points" />
          </mxGeometry>
        </mxCell>
        <mxCell id="NQ980aSsCJvNuDoRZY3Y-69" value="Content" style="ellipse;whiteSpace=wrap;html=1;fillColor=#dae8fc;strokeColor=#6c8ebf;" parent="1" vertex="1">
          <mxGeometry x="560" y="681" width="60" height="30" as="geometry" />
        </mxCell>
        <mxCell id="NQ980aSsCJvNuDoRZY3Y-70" value="" style="endArrow=none;html=1;rounded=0;entryX=0;entryY=0.5;entryDx=0;entryDy=0;exitX=1;exitY=1;exitDx=0;exitDy=0;" parent="1" source="NQ980aSsCJvNuDoRZY3Y-49" target="NQ980aSsCJvNuDoRZY3Y-69" edge="1">
          <mxGeometry width="50" height="50" relative="1" as="geometry">
            <mxPoint x="570" y="691" as="sourcePoint" />
            <mxPoint x="605" y="766" as="targetPoint" />
            <Array as="points" />
          </mxGeometry>
        </mxCell>
        <mxCell id="NQ980aSsCJvNuDoRZY3Y-71" value="Issues" style="shape=rhombus;perimeter=rhombusPerimeter;whiteSpace=wrap;html=1;align=center;fillColor=#d5e8d4;strokeColor=#82b366;shadow=1;" parent="1" vertex="1">
          <mxGeometry x="440" y="1230.5" width="120" height="60" as="geometry" />
        </mxCell>
        <mxCell id="NQ980aSsCJvNuDoRZY3Y-74" value="DepartmentID" style="ellipse;whiteSpace=wrap;html=1;align=center;fontStyle=4;fillColor=#dae8fc;strokeColor=#6c8ebf;" parent="1" vertex="1">
          <mxGeometry x="569" y="1443" width="85" height="30" as="geometry" />
        </mxCell>
        <mxCell id="NQ980aSsCJvNuDoRZY3Y-75" value="" style="endArrow=none;html=1;rounded=0;startSize=14;endSize=14;sourcePerimeterSpacing=8;targetPerimeterSpacing=8;curved=1;exitX=1;exitY=0.5;exitDx=0;exitDy=0;entryX=0;entryY=0.5;entryDx=0;entryDy=0;" parent="1" source="NQ980aSsCJvNuDoRZY3Y-55" target="NQ980aSsCJvNuDoRZY3Y-74" edge="1">
          <mxGeometry relative="1" as="geometry">
            <mxPoint x="559" y="1313" as="sourcePoint" />
            <mxPoint x="799" y="1383" as="targetPoint" />
          </mxGeometry>
        </mxCell>
        <mxCell id="NQ980aSsCJvNuDoRZY3Y-76" value="Budget" style="ellipse;whiteSpace=wrap;html=1;fillColor=#dae8fc;strokeColor=#6c8ebf;" parent="1" vertex="1">
          <mxGeometry x="569" y="1403" width="60" height="25" as="geometry" />
        </mxCell>
        <mxCell id="NQ980aSsCJvNuDoRZY3Y-77" value="" style="endArrow=none;html=1;rounded=0;entryX=0.02;entryY=0.616;entryDx=0;entryDy=0;exitX=1;exitY=0;exitDx=0;exitDy=0;entryPerimeter=0;" parent="1" source="NQ980aSsCJvNuDoRZY3Y-55" target="NQ980aSsCJvNuDoRZY3Y-76" edge="1">
          <mxGeometry width="50" height="50" relative="1" as="geometry">
            <mxPoint x="588" y="1253" as="sourcePoint" />
            <mxPoint x="-175" y="1207" as="targetPoint" />
          </mxGeometry>
        </mxCell>
        <mxCell id="NQ980aSsCJvNuDoRZY3Y-78" value="dname" style="ellipse;whiteSpace=wrap;html=1;fillColor=#dae8fc;strokeColor=#6c8ebf;" parent="1" vertex="1">
          <mxGeometry x="499" y="1473" width="60" height="20" as="geometry" />
        </mxCell>
        <mxCell id="NQ980aSsCJvNuDoRZY3Y-79" value="" style="endArrow=none;html=1;rounded=0;entryX=0.5;entryY=0;entryDx=0;entryDy=0;exitX=0.75;exitY=1;exitDx=0;exitDy=0;" parent="1" source="NQ980aSsCJvNuDoRZY3Y-55" target="NQ980aSsCJvNuDoRZY3Y-78" edge="1">
          <mxGeometry width="50" height="50" relative="1" as="geometry">
            <mxPoint x="559" y="1363" as="sourcePoint" />
            <mxPoint x="-124" y="1347" as="targetPoint" />
          </mxGeometry>
        </mxCell>
        <mxCell id="NQ980aSsCJvNuDoRZY3Y-81" value="" style="endArrow=none;html=1;rounded=0;startSize=14;endSize=14;sourcePerimeterSpacing=8;targetPerimeterSpacing=8;curved=1;exitX=0.5;exitY=1;exitDx=0;exitDy=0;entryX=0.5;entryY=0;entryDx=0;entryDy=0;" parent="1" source="NQ980aSsCJvNuDoRZY3Y-55" target="NQ980aSsCJvNuDoRZY3Y-84" edge="1">
          <mxGeometry relative="1" as="geometry">
            <mxPoint x="599" y="1403" as="sourcePoint" />
            <mxPoint x="589" y="1373" as="targetPoint" />
          </mxGeometry>
        </mxCell>
        <mxCell id="NQ980aSsCJvNuDoRZY3Y-84" value="numberOfEmployees" style="ellipse;whiteSpace=wrap;html=1;align=center;fillColor=#dae8fc;strokeColor=#6c8ebf;" parent="1" vertex="1">
          <mxGeometry x="429" y="1503" width="120" height="27.5" as="geometry" />
        </mxCell>
        <mxCell id="NQ980aSsCJvNuDoRZY3Y-86" value="depDescription" style="ellipse;whiteSpace=wrap;html=1;align=center;fillColor=#dae8fc;strokeColor=#6c8ebf;" parent="1" vertex="1">
          <mxGeometry x="379" y="1468" width="100" height="20" as="geometry" />
        </mxCell>
        <mxCell id="NQ980aSsCJvNuDoRZY3Y-88" value="" style="endArrow=none;html=1;rounded=0;startSize=14;endSize=14;sourcePerimeterSpacing=8;targetPerimeterSpacing=8;curved=1;exitX=0;exitY=1;exitDx=0;exitDy=0;entryX=0.5;entryY=0;entryDx=0;entryDy=0;" parent="1" source="NQ980aSsCJvNuDoRZY3Y-55" target="NQ980aSsCJvNuDoRZY3Y-86" edge="1">
          <mxGeometry relative="1" as="geometry">
            <mxPoint x="529" y="1483" as="sourcePoint" />
            <mxPoint x="689" y="1483" as="targetPoint" />
          </mxGeometry>
        </mxCell>
        <mxCell id="NQ980aSsCJvNuDoRZY3Y-91" value="&lt;u&gt;Dependant-ID&lt;/u&gt;" style="ellipse;whiteSpace=wrap;html=1;align=center;fillColor=#dae8fc;strokeColor=#6c8ebf;" parent="1" vertex="1">
          <mxGeometry x="-190" y="1638" width="100" height="30" as="geometry" />
        </mxCell>
        <mxCell id="NQ980aSsCJvNuDoRZY3Y-93" value="" style="endArrow=none;html=1;rounded=0;startSize=14;endSize=14;sourcePerimeterSpacing=8;targetPerimeterSpacing=8;curved=1;exitX=1;exitY=0;exitDx=0;exitDy=0;entryX=0.5;entryY=0;entryDx=0;entryDy=0;" parent="1" source="NyHtIuRuuXQ_OXRChrR5-11" target="NQ980aSsCJvNuDoRZY3Y-94" edge="1">
          <mxGeometry relative="1" as="geometry">
            <mxPoint x="392.5" y="1483" as="sourcePoint" />
            <mxPoint x="462.5" y="1443" as="targetPoint" />
          </mxGeometry>
        </mxCell>
        <mxCell id="NQ980aSsCJvNuDoRZY3Y-94" value="DependantName" style="ellipse;whiteSpace=wrap;html=1;align=center;fillColor=#dae8fc;strokeColor=#6c8ebf;" parent="1" vertex="1">
          <mxGeometry x="75" y="1563" width="100" height="20" as="geometry" />
        </mxCell>
        <mxCell id="NQ980aSsCJvNuDoRZY3Y-95" value="Relationship" style="ellipse;whiteSpace=wrap;html=1;align=center;fillColor=#dae8fc;strokeColor=#6c8ebf;" parent="1" vertex="1">
          <mxGeometry x="95" y="1608" width="90" height="30" as="geometry" />
        </mxCell>
        <mxCell id="NQ980aSsCJvNuDoRZY3Y-96" value="" style="endArrow=none;html=1;rounded=0;startSize=14;endSize=14;sourcePerimeterSpacing=8;targetPerimeterSpacing=8;curved=1;exitX=1;exitY=0.5;exitDx=0;exitDy=0;entryX=0;entryY=0.5;entryDx=0;entryDy=0;" parent="1" source="NyHtIuRuuXQ_OXRChrR5-11" target="NQ980aSsCJvNuDoRZY3Y-95" edge="1">
          <mxGeometry relative="1" as="geometry">
            <mxPoint x="292.5" y="1513" as="sourcePoint" />
            <mxPoint x="452.5" y="1513" as="targetPoint" />
          </mxGeometry>
        </mxCell>
        <mxCell id="NQ980aSsCJvNuDoRZY3Y-97" value="" style="endArrow=none;html=1;rounded=0;startSize=14;endSize=14;sourcePerimeterSpacing=8;targetPerimeterSpacing=8;curved=1;entryX=1;entryY=1;entryDx=0;entryDy=0;exitX=0.5;exitY=0;exitDx=0;exitDy=0;" parent="1" source="CQJTI_TzowkRT3bfmxG_-5" target="NyHtIuRuuXQ_OXRChrR5-11" edge="1">
          <mxGeometry relative="1" as="geometry">
            <mxPoint x="102.5" y="1743" as="sourcePoint" />
            <mxPoint x="342.5" y="1503" as="targetPoint" />
          </mxGeometry>
        </mxCell>
        <mxCell id="CQJTI_TzowkRT3bfmxG_-3" value="" style="endArrow=none;html=1;rounded=0;startSize=14;endSize=14;sourcePerimeterSpacing=8;targetPerimeterSpacing=8;curved=1;entryX=0;entryY=0.5;entryDx=0;entryDy=0;exitX=1;exitY=0;exitDx=0;exitDy=0;" parent="1" source="NQ980aSsCJvNuDoRZY3Y-91" target="NyHtIuRuuXQ_OXRChrR5-11" edge="1">
          <mxGeometry relative="1" as="geometry">
            <mxPoint x="572.5" y="1473" as="sourcePoint" />
            <mxPoint x="82.5" y="1733" as="targetPoint" />
          </mxGeometry>
        </mxCell>
        <mxCell id="CQJTI_TzowkRT3bfmxG_-5" value="Age" style="ellipse;whiteSpace=wrap;html=1;dashed=1;" parent="1" vertex="1">
          <mxGeometry x="115" y="1650" width="60" height="35" as="geometry" />
        </mxCell>
        <mxCell id="CQJTI_TzowkRT3bfmxG_-6" value="ename" style="ellipse;whiteSpace=wrap;html=1;align=center;fillColor=#dae8fc;strokeColor=#6c8ebf;" parent="1" vertex="1">
          <mxGeometry x="-87.5" y="1353" width="80" height="20" as="geometry" />
        </mxCell>
        <mxCell id="CQJTI_TzowkRT3bfmxG_-7" value="" style="endArrow=none;html=1;rounded=0;startSize=14;endSize=14;sourcePerimeterSpacing=8;targetPerimeterSpacing=8;curved=1;exitX=1;exitY=0;exitDx=0;exitDy=0;entryX=0;entryY=0.75;entryDx=0;entryDy=0;" parent="1" source="CQJTI_TzowkRT3bfmxG_-6" target="cp8nzbBQbhLiMNm4tQ7m-32" edge="1">
          <mxGeometry relative="1" as="geometry">
            <mxPoint x="-60" y="1293" as="sourcePoint" />
            <mxPoint x="100" y="1293" as="targetPoint" />
          </mxGeometry>
        </mxCell>
        <mxCell id="CQJTI_TzowkRT3bfmxG_-8" value="esex" style="ellipse;whiteSpace=wrap;html=1;align=center;fillColor=#dae8fc;strokeColor=#6c8ebf;" parent="1" vertex="1">
          <mxGeometry x="-7.5" y="1236.75" width="50" height="20" as="geometry" />
        </mxCell>
        <mxCell id="CQJTI_TzowkRT3bfmxG_-9" value="" style="endArrow=none;html=1;rounded=0;startSize=14;endSize=14;sourcePerimeterSpacing=8;targetPerimeterSpacing=8;curved=1;exitX=0.5;exitY=1;exitDx=0;exitDy=0;entryX=0.5;entryY=0;entryDx=0;entryDy=0;" parent="1" source="CQJTI_TzowkRT3bfmxG_-8" target="cp8nzbBQbhLiMNm4tQ7m-32" edge="1">
          <mxGeometry relative="1" as="geometry">
            <mxPoint x="20" y="1283" as="sourcePoint" />
            <mxPoint x="50" y="1303" as="targetPoint" />
          </mxGeometry>
        </mxCell>
        <mxCell id="CQJTI_TzowkRT3bfmxG_-11" value="Manages" style="shape=rhombus;perimeter=rhombusPerimeter;whiteSpace=wrap;html=1;align=center;fillColor=#d5e8d4;strokeColor=#82b366;shadow=1;" parent="1" vertex="1">
          <mxGeometry x="180" y="1398" width="120" height="60" as="geometry" />
        </mxCell>
        <mxCell id="CQJTI_TzowkRT3bfmxG_-15" value="" style="shape=flexArrow;endArrow=classic;html=1;rounded=0;exitX=0;exitY=0.5;exitDx=0;exitDy=0;width=11.11111111111111;endSize=5.966666666666667;entryX=1;entryY=0.5;entryDx=0;entryDy=0;" parent="1" source="NQ980aSsCJvNuDoRZY3Y-55" target="CQJTI_TzowkRT3bfmxG_-11" edge="1">
          <mxGeometry width="50" height="50" relative="1" as="geometry">
            <mxPoint x="320" y="1343" as="sourcePoint" />
            <mxPoint x="300" y="1493" as="targetPoint" />
          </mxGeometry>
        </mxCell>
        <mxCell id="CQJTI_TzowkRT3bfmxG_-17" value="" style="endArrow=none;html=1;rounded=0;entryX=0.5;entryY=1;entryDx=0;entryDy=0;exitX=0.5;exitY=0;exitDx=0;exitDy=0;" parent="1" source="NQ980aSsCJvNuDoRZY3Y-55" target="NQ980aSsCJvNuDoRZY3Y-71" edge="1">
          <mxGeometry width="50" height="50" relative="1" as="geometry">
            <mxPoint x="460" y="1083" as="sourcePoint" />
            <mxPoint x="385" y="1038" as="targetPoint" />
            <Array as="points" />
          </mxGeometry>
        </mxCell>
        <mxCell id="CQJTI_TzowkRT3bfmxG_-24" value="Managed by" style="shape=rhombus;perimeter=rhombusPerimeter;whiteSpace=wrap;html=1;align=center;fillColor=#d5e8d4;strokeColor=#82b366;shadow=1;" parent="1" vertex="1">
          <mxGeometry x="-235" y="1199.25" width="120" height="60" as="geometry" />
        </mxCell>
        <mxCell id="CQJTI_TzowkRT3bfmxG_-27" value="" style="endArrow=none;html=1;rounded=0;startSize=14;endSize=14;sourcePerimeterSpacing=8;targetPerimeterSpacing=8;curved=1;exitX=1;exitY=1;exitDx=0;exitDy=0;entryX=0;entryY=0;entryDx=0;entryDy=0;" parent="1" source="CQJTI_TzowkRT3bfmxG_-24" target="cp8nzbBQbhLiMNm4tQ7m-32" edge="1">
          <mxGeometry relative="1" as="geometry">
            <mxPoint x="-160" y="1253" as="sourcePoint" />
            <mxPoint x="-340" y="1323" as="targetPoint" />
          </mxGeometry>
        </mxCell>
        <mxCell id="CQJTI_TzowkRT3bfmxG_-29" value="Hours" style="ellipse;whiteSpace=wrap;html=1;fillColor=#dae8fc;strokeColor=#6c8ebf;" parent="1" vertex="1">
          <mxGeometry x="270" y="1343" width="60" height="20" as="geometry" />
        </mxCell>
        <mxCell id="CQJTI_TzowkRT3bfmxG_-30" value="" style="endArrow=none;html=1;rounded=0;startSize=14;endSize=14;sourcePerimeterSpacing=8;targetPerimeterSpacing=8;curved=1;entryX=1;entryY=1;entryDx=0;entryDy=0;exitX=0.5;exitY=0;exitDx=0;exitDy=0;" parent="1" source="CQJTI_TzowkRT3bfmxG_-29" target="NQ980aSsCJvNuDoRZY3Y-53" edge="1">
          <mxGeometry relative="1" as="geometry">
            <mxPoint x="320" y="1353" as="sourcePoint" />
            <mxPoint x="330" y="1478" as="targetPoint" />
          </mxGeometry>
        </mxCell>
        <mxCell id="CQJTI_TzowkRT3bfmxG_-32" value="#DestinationAccountID" style="ellipse;whiteSpace=wrap;html=1;fillColor=#dae8fc;strokeColor=#6c8ebf;" parent="1" vertex="1">
          <mxGeometry x="-640" y="605" width="140" height="35" as="geometry" />
        </mxCell>
        <mxCell id="CQJTI_TzowkRT3bfmxG_-36" value="" style="endArrow=none;html=1;rounded=0;startSize=14;endSize=14;sourcePerimeterSpacing=8;targetPerimeterSpacing=8;curved=1;entryX=0.5;entryY=1;entryDx=0;entryDy=0;exitX=1;exitY=0;exitDx=0;exitDy=0;" parent="1" source="cp8nzbBQbhLiMNm4tQ7m-29" target="CQJTI_TzowkRT3bfmxG_-32" edge="1">
          <mxGeometry relative="1" as="geometry">
            <mxPoint x="-563" y="771" as="sourcePoint" />
            <mxPoint x="-403" y="771" as="targetPoint" />
          </mxGeometry>
        </mxCell>
        <mxCell id="CQJTI_TzowkRT3bfmxG_-37" value="" style="endArrow=none;html=1;rounded=0;startSize=14;endSize=14;sourcePerimeterSpacing=8;targetPerimeterSpacing=8;curved=1;exitX=1;exitY=0.25;exitDx=0;exitDy=0;entryX=0;entryY=0.5;entryDx=0;entryDy=0;" parent="1" source="cp8nzbBQbhLiMNm4tQ7m-32" target="NQ980aSsCJvNuDoRZY3Y-71" edge="1">
          <mxGeometry relative="1" as="geometry">
            <mxPoint x="330" y="1293" as="sourcePoint" />
            <mxPoint x="490" y="1293" as="targetPoint" />
          </mxGeometry>
        </mxCell>
        <mxCell id="CQJTI_TzowkRT3bfmxG_-38" value="" style="endArrow=none;html=1;rounded=0;startSize=14;endSize=14;sourcePerimeterSpacing=8;targetPerimeterSpacing=8;curved=1;exitX=1;exitY=1;exitDx=0;exitDy=0;entryX=0;entryY=0.5;entryDx=0;entryDy=0;" parent="1" source="cp8nzbBQbhLiMNm4tQ7m-32" target="CQJTI_TzowkRT3bfmxG_-11" edge="1">
          <mxGeometry relative="1" as="geometry">
            <mxPoint x="109" y="1333" as="sourcePoint" />
            <mxPoint x="450" y="1273" as="targetPoint" />
          </mxGeometry>
        </mxCell>
        <mxCell id="CQJTI_TzowkRT3bfmxG_-41" value="" style="endArrow=none;html=1;rounded=0;sourcePerimeterSpacing=8;targetPerimeterSpacing=8;curved=1;exitX=0.5;exitY=1;exitDx=0;exitDy=0;entryX=0.5;entryY=0;entryDx=0;entryDy=0;shape=link;" parent="1" source="NQ980aSsCJvNuDoRZY3Y-49" target="NQ980aSsCJvNuDoRZY3Y-71" edge="1">
          <mxGeometry relative="1" as="geometry">
            <mxPoint x="570" y="791" as="sourcePoint" />
            <mxPoint x="730" y="791" as="targetPoint" />
          </mxGeometry>
        </mxCell>
        <mxCell id="CQJTI_TzowkRT3bfmxG_-43" value="" style="shape=flexArrow;endArrow=classic;html=1;rounded=0;exitX=1;exitY=0;exitDx=0;exitDy=0;entryX=0;entryY=1;entryDx=0;entryDy=0;" parent="1" source="cp8nzbBQbhLiMNm4tQ7m-15" target="CQJTI_TzowkRT3bfmxG_-24" edge="1">
          <mxGeometry width="50" height="50" relative="1" as="geometry">
            <mxPoint x="-236.5" y="1202.63" as="sourcePoint" />
            <mxPoint x="-250" y="1238" as="targetPoint" />
          </mxGeometry>
        </mxCell>
        <mxCell id="CQJTI_TzowkRT3bfmxG_-44" value="issued in" style="shape=rhombus;perimeter=rhombusPerimeter;whiteSpace=wrap;html=1;align=center;fillColor=#d5e8d4;strokeColor=#82b366;shadow=1;" parent="1" vertex="1">
          <mxGeometry x="-1040" y="1293" width="120" height="60" as="geometry" />
        </mxCell>
        <mxCell id="CQJTI_TzowkRT3bfmxG_-46" value="" style="endArrow=none;html=1;rounded=0;startSize=14;endSize=14;sourcePerimeterSpacing=8;targetPerimeterSpacing=8;curved=1;exitX=1;exitY=0.5;exitDx=0;exitDy=0;entryX=0;entryY=0.5;entryDx=0;entryDy=0;" parent="1" source="CQJTI_TzowkRT3bfmxG_-44" target="cp8nzbBQbhLiMNm4tQ7m-15" edge="1">
          <mxGeometry relative="1" as="geometry">
            <mxPoint x="-710" y="1343" as="sourcePoint" />
            <mxPoint x="-550" y="1343" as="targetPoint" />
          </mxGeometry>
        </mxCell>
        <mxCell id="CQJTI_TzowkRT3bfmxG_-47" value="" style="shape=flexArrow;endArrow=classic;html=1;rounded=0;exitX=0.397;exitY=0.967;exitDx=0;exitDy=0;exitPerimeter=0;" parent="1" source="cp8nzbBQbhLiMNm4tQ7m-26" target="CQJTI_TzowkRT3bfmxG_-44" edge="1">
          <mxGeometry width="50" height="50" relative="1" as="geometry">
            <mxPoint x="-840" y="795" as="sourcePoint" />
            <mxPoint x="-840" y="865" as="targetPoint" />
            <Array as="points">
              <mxPoint x="-710" y="560" />
              <mxPoint x="-980" y="570" />
            </Array>
          </mxGeometry>
        </mxCell>
        <mxCell id="CQJTI_TzowkRT3bfmxG_-48" value="" style="endArrow=none;html=1;rounded=0;startSize=14;endSize=14;sourcePerimeterSpacing=8;targetPerimeterSpacing=8;curved=1;exitX=1;exitY=0.5;exitDx=0;exitDy=0;entryX=0;entryY=0.5;entryDx=0;entryDy=0;" parent="1" source="cp8nzbBQbhLiMNm4tQ7m-72" target="cp8nzbBQbhLiMNm4tQ7m-74" edge="1">
          <mxGeometry relative="1" as="geometry">
            <mxPoint x="370" y="480" as="sourcePoint" />
            <mxPoint x="530" y="480" as="targetPoint" />
          </mxGeometry>
        </mxCell>
        <mxCell id="mkfZO-Kcm251w3EHjNu_-1" value="Views" style="ellipse;whiteSpace=wrap;html=1;align=center;fillColor=#dae8fc;strokeColor=#6c8ebf;" parent="1" vertex="1">
          <mxGeometry x="449" y="560" width="100" height="40" as="geometry" />
        </mxCell>
        <mxCell id="mkfZO-Kcm251w3EHjNu_-2" value="LoanPurpose" style="ellipse;whiteSpace=wrap;html=1;align=center;fillColor=#dae8fc;strokeColor=#6c8ebf;" parent="1" vertex="1">
          <mxGeometry x="92.5" y="5" width="77.5" height="25" as="geometry" />
        </mxCell>
        <mxCell id="mkfZO-Kcm251w3EHjNu_-3" value="" style="endArrow=none;html=1;rounded=0;startSize=14;endSize=14;sourcePerimeterSpacing=8;targetPerimeterSpacing=8;curved=1;exitX=1;exitY=0.5;exitDx=0;exitDy=0;entryX=0;entryY=0.5;entryDx=0;entryDy=0;" parent="1" source="NQ980aSsCJvNuDoRZY3Y-21" target="mkfZO-Kcm251w3EHjNu_-2" edge="1">
          <mxGeometry relative="1" as="geometry">
            <mxPoint x="100" y="60" as="sourcePoint" />
            <mxPoint x="260" y="60" as="targetPoint" />
          </mxGeometry>
        </mxCell>
        <mxCell id="mkfZO-Kcm251w3EHjNu_-5" value="ExpectedGraddate" style="ellipse;whiteSpace=wrap;html=1;align=center;fillColor=#dae8fc;strokeColor=#6c8ebf;" parent="1" vertex="1">
          <mxGeometry x="-30" y="-60" width="100" height="30" as="geometry" />
        </mxCell>
        <mxCell id="mkfZO-Kcm251w3EHjNu_-6" value="" style="endArrow=none;html=1;rounded=0;startSize=14;endSize=14;sourcePerimeterSpacing=8;targetPerimeterSpacing=8;curved=1;exitX=1;exitY=0.5;exitDx=0;exitDy=0;entryX=0.294;entryY=0.983;entryDx=0;entryDy=0;entryPerimeter=0;" parent="1" source="NQ980aSsCJvNuDoRZY3Y-20" target="mkfZO-Kcm251w3EHjNu_-5" edge="1">
          <mxGeometry relative="1" as="geometry">
            <mxPoint x="-60" y="50" as="sourcePoint" />
            <mxPoint x="100" y="50" as="targetPoint" />
          </mxGeometry>
        </mxCell>
        <mxCell id="3Eyh_iahhDKBnPLEujGL-1" value="DateOfBirth" style="ellipse;whiteSpace=wrap;html=1;align=center;fillColor=#dae8fc;strokeColor=#6c8ebf;" parent="1" vertex="1">
          <mxGeometry x="-165" y="1580" width="90" height="30" as="geometry" />
        </mxCell>
        <mxCell id="3Eyh_iahhDKBnPLEujGL-2" value="" style="endArrow=none;html=1;rounded=0;startSize=14;endSize=14;sourcePerimeterSpacing=8;targetPerimeterSpacing=8;curved=1;entryX=0;entryY=0.25;entryDx=0;entryDy=0;exitX=1;exitY=0.5;exitDx=0;exitDy=0;" parent="1" source="3Eyh_iahhDKBnPLEujGL-1" target="NyHtIuRuuXQ_OXRChrR5-11" edge="1">
          <mxGeometry relative="1" as="geometry">
            <mxPoint x="-12.5" y="1747" as="sourcePoint" />
            <mxPoint x="7.5" y="1733" as="targetPoint" />
          </mxGeometry>
        </mxCell>
        <mxCell id="AhoHXbkInvHYkDJZ0jlV-5" value="Phone" style="ellipse;whiteSpace=wrap;html=1;fillColor=#dae8fc;strokeColor=#6c8ebf;" parent="1" vertex="1">
          <mxGeometry x="-390" y="1398" width="60" height="25" as="geometry" />
        </mxCell>
        <mxCell id="AhoHXbkInvHYkDJZ0jlV-6" value="" style="endArrow=none;html=1;rounded=0;exitX=0.5;exitY=1;exitDx=0;exitDy=0;entryX=0.5;entryY=0;entryDx=0;entryDy=0;" parent="1" source="cp8nzbBQbhLiMNm4tQ7m-15" target="AhoHXbkInvHYkDJZ0jlV-5" edge="1">
          <mxGeometry width="50" height="50" relative="1" as="geometry">
            <mxPoint x="-375" y="1353" as="sourcePoint" />
            <mxPoint x="-390" y="1390" as="targetPoint" />
            <Array as="points" />
          </mxGeometry>
        </mxCell>
        <mxCell id="AhoHXbkInvHYkDJZ0jlV-16" value="Street" style="ellipse;whiteSpace=wrap;html=1;fillColor=#f5f5f5;fontColor=#333333;strokeColor=#666666;" parent="1" vertex="1">
          <mxGeometry x="180" y="1234.25" width="60" height="25" as="geometry" />
        </mxCell>
        <mxCell id="AhoHXbkInvHYkDJZ0jlV-17" value="ZipCode" style="ellipse;whiteSpace=wrap;html=1;fillColor=#f5f5f5;fontColor=#333333;strokeColor=#666666;" parent="1" vertex="1">
          <mxGeometry x="190" y="1185.75" width="60" height="40" as="geometry" />
        </mxCell>
        <mxCell id="AhoHXbkInvHYkDJZ0jlV-18" value="" style="endArrow=none;html=1;rounded=0;exitX=0;exitY=0.5;exitDx=0;exitDy=0;entryX=1;entryY=0.5;entryDx=0;entryDy=0;" parent="1" source="AhoHXbkInvHYkDJZ0jlV-16" edge="1">
          <mxGeometry width="50" height="50" relative="1" as="geometry">
            <mxPoint x="480" y="1249.75" as="sourcePoint" />
            <mxPoint x="170" y="1246.75" as="targetPoint" />
          </mxGeometry>
        </mxCell>
        <mxCell id="AhoHXbkInvHYkDJZ0jlV-19" value="" style="endArrow=none;html=1;rounded=0;exitX=0;exitY=0.5;exitDx=0;exitDy=0;entryX=1;entryY=0;entryDx=0;entryDy=0;" parent="1" edge="1">
          <mxGeometry width="50" height="50" relative="1" as="geometry">
            <mxPoint x="189.99999999999955" y="1207" as="sourcePoint" />
            <mxPoint x="151" y="1228" as="targetPoint" />
          </mxGeometry>
        </mxCell>
        <mxCell id="AhoHXbkInvHYkDJZ0jlV-20" value="City" style="ellipse;whiteSpace=wrap;html=1;fillColor=#f5f5f5;fontColor=#333333;strokeColor=#666666;" parent="1" vertex="1">
          <mxGeometry x="180" y="1142" width="60" height="40" as="geometry" />
        </mxCell>
        <mxCell id="AhoHXbkInvHYkDJZ0jlV-21" value="Country" style="ellipse;whiteSpace=wrap;html=1;fillColor=#f5f5f5;fontColor=#333333;strokeColor=#666666;" parent="1" vertex="1">
          <mxGeometry x="115" y="1118.25" width="60" height="40" as="geometry" />
        </mxCell>
        <mxCell id="AhoHXbkInvHYkDJZ0jlV-22" value="" style="endArrow=none;html=1;rounded=0;exitX=0;exitY=1;exitDx=0;exitDy=0;" parent="1" source="AhoHXbkInvHYkDJZ0jlV-20" edge="1">
          <mxGeometry width="50" height="50" relative="1" as="geometry">
            <mxPoint x="410" y="1165" as="sourcePoint" />
            <mxPoint x="145" y="1225" as="targetPoint" />
            <Array as="points" />
          </mxGeometry>
        </mxCell>
        <mxCell id="AhoHXbkInvHYkDJZ0jlV-23" value="" style="endArrow=none;html=1;rounded=0;exitX=0.5;exitY=1;exitDx=0;exitDy=0;" parent="1" source="AhoHXbkInvHYkDJZ0jlV-24" edge="1">
          <mxGeometry width="50" height="50" relative="1" as="geometry">
            <mxPoint x="230" y="1129.75" as="sourcePoint" />
            <mxPoint x="145" y="1226.75" as="targetPoint" />
          </mxGeometry>
        </mxCell>
        <mxCell id="AhoHXbkInvHYkDJZ0jlV-25" value="" style="endArrow=none;html=1;rounded=0;entryX=0.5;entryY=1;entryDx=0;entryDy=0;exitX=1;exitY=0;exitDx=0;exitDy=0;" parent="1" source="cp8nzbBQbhLiMNm4tQ7m-32" target="AhoHXbkInvHYkDJZ0jlV-24" edge="1">
          <mxGeometry width="50" height="50" relative="1" as="geometry">
            <mxPoint x="-325" y="813" as="sourcePoint" />
            <mxPoint x="-290" y="773" as="targetPoint" />
          </mxGeometry>
        </mxCell>
        <mxCell id="AhoHXbkInvHYkDJZ0jlV-26" value="" style="endArrow=none;html=1;rounded=0;exitX=0.5;exitY=1;exitDx=0;exitDy=0;" parent="1" source="AhoHXbkInvHYkDJZ0jlV-21" target="AhoHXbkInvHYkDJZ0jlV-24" edge="1">
          <mxGeometry width="50" height="50" relative="1" as="geometry">
            <mxPoint x="159.99999999999955" y="754.75" as="sourcePoint" />
            <mxPoint x="145" y="814.75" as="targetPoint" />
          </mxGeometry>
        </mxCell>
        <mxCell id="AhoHXbkInvHYkDJZ0jlV-24" value="eaddress" style="ellipse;whiteSpace=wrap;html=1;fillColor=#e1d5e7;strokeColor=#9673a6;" parent="1" vertex="1">
          <mxGeometry x="110" y="1228" width="60" height="40" as="geometry" />
        </mxCell>
        <mxCell id="AhoHXbkInvHYkDJZ0jlV-28" value="TargetCurrency" style="ellipse;whiteSpace=wrap;html=1;fillColor=#dae8fc;strokeColor=#6c8ebf;" parent="1" vertex="1">
          <mxGeometry x="45" y="605" width="90" height="35" as="geometry" />
        </mxCell>
        <mxCell id="AhoHXbkInvHYkDJZ0jlV-29" value="SourceCurrency" style="ellipse;whiteSpace=wrap;html=1;fillColor=#dae8fc;strokeColor=#6c8ebf;" parent="1" vertex="1">
          <mxGeometry x="200" y="620" width="90" height="30" as="geometry" />
        </mxCell>
        <mxCell id="AhoHXbkInvHYkDJZ0jlV-31" value="" style="endArrow=none;html=1;rounded=0;exitX=1;exitY=1;exitDx=0;exitDy=0;entryX=0;entryY=0;entryDx=0;entryDy=0;" parent="1" source="AhoHXbkInvHYkDJZ0jlV-28" target="cp8nzbBQbhLiMNm4tQ7m-62" edge="1">
          <mxGeometry width="50" height="50" relative="1" as="geometry">
            <mxPoint x="-300" y="640" as="sourcePoint" />
            <mxPoint x="-325" y="660" as="targetPoint" />
          </mxGeometry>
        </mxCell>
        <mxCell id="AhoHXbkInvHYkDJZ0jlV-32" value="" style="endArrow=none;html=1;rounded=0;exitX=0;exitY=1;exitDx=0;exitDy=0;entryX=1;entryY=0;entryDx=0;entryDy=0;" parent="1" target="cp8nzbBQbhLiMNm4tQ7m-62" edge="1">
          <mxGeometry width="50" height="50" relative="1" as="geometry">
            <mxPoint x="210.1719215359135" y="645.4985668538411" as="sourcePoint" />
            <mxPoint x="70" y="666" as="targetPoint" />
          </mxGeometry>
        </mxCell>
        <mxCell id="AhoHXbkInvHYkDJZ0jlV-34" value="csex" style="ellipse;whiteSpace=wrap;html=1;fillColor=#dae8fc;strokeColor=#6c8ebf;" parent="1" vertex="1">
          <mxGeometry x="-270" y="470" width="60" height="40" as="geometry" />
        </mxCell>
        <mxCell id="AhoHXbkInvHYkDJZ0jlV-36" value="" style="endArrow=none;html=1;rounded=0;exitX=0.889;exitY=1.004;exitDx=0;exitDy=0;exitPerimeter=0;" parent="1" source="cp8nzbBQbhLiMNm4tQ7m-1" target="AhoHXbkInvHYkDJZ0jlV-34" edge="1">
          <mxGeometry width="50" height="50" relative="1" as="geometry">
            <mxPoint x="-300" y="440" as="sourcePoint" />
            <mxPoint x="-264" y="436" as="targetPoint" />
          </mxGeometry>
        </mxCell>
        <mxCell id="YQb5VDs0j_EAlY-Gbn1h-1" value="" style="endArrow=none;html=1;rounded=0;startSize=14;endSize=14;sourcePerimeterSpacing=8;targetPerimeterSpacing=8;curved=1;exitX=1;exitY=0.5;exitDx=0;exitDy=0;entryX=0;entryY=0.5;entryDx=0;entryDy=0;" parent="1" source="NQ980aSsCJvNuDoRZY3Y-1" target="YQb5VDs0j_EAlY-Gbn1h-2" edge="1">
          <mxGeometry relative="1" as="geometry">
            <mxPoint x="100" y="190" as="sourcePoint" />
            <mxPoint x="60" y="150" as="targetPoint" />
          </mxGeometry>
        </mxCell>
        <mxCell id="YQb5VDs0j_EAlY-Gbn1h-2" value="Date due" style="ellipse;whiteSpace=wrap;html=1;align=center;fillColor=#dae8fc;strokeColor=#6c8ebf;" parent="1" vertex="1">
          <mxGeometry x="45" y="122.5" width="100" height="40" as="geometry" />
        </mxCell>
        <mxCell id="YQb5VDs0j_EAlY-Gbn1h-3" value="" style="endArrow=none;html=1;rounded=0;startSize=14;endSize=14;sourcePerimeterSpacing=8;targetPerimeterSpacing=8;curved=1;exitX=1;exitY=0;exitDx=0;exitDy=0;entryX=0.5;entryY=1;entryDx=0;entryDy=0;" parent="1" source="NQ980aSsCJvNuDoRZY3Y-20" target="YQb5VDs0j_EAlY-Gbn1h-4" edge="1">
          <mxGeometry relative="1" as="geometry">
            <mxPoint x="-30" y="-90" as="sourcePoint" />
            <mxPoint x="-30" y="-80" as="targetPoint" />
          </mxGeometry>
        </mxCell>
        <mxCell id="YQb5VDs0j_EAlY-Gbn1h-4" value="Expected income" style="ellipse;whiteSpace=wrap;html=1;align=center;fillColor=#dae8fc;strokeColor=#6c8ebf;" parent="1" vertex="1">
          <mxGeometry x="-67.5" y="-110" width="100" height="30" as="geometry" />
        </mxCell>
        <mxCell id="1ZfyY-yyabJH_yNaMhFH-1" value="Links with" style="shape=rhombus;perimeter=rhombusPerimeter;whiteSpace=wrap;html=1;align=center;fillColor=#d5e8d4;strokeColor=#82b366;" parent="1" vertex="1">
          <mxGeometry x="-320" y="-190" width="120" height="60" as="geometry" />
        </mxCell>
        <mxCell id="1ZfyY-yyabJH_yNaMhFH-6" value="" style="endArrow=none;html=1;rounded=0;startSize=14;endSize=14;sourcePerimeterSpacing=8;targetPerimeterSpacing=8;exitX=1;exitY=0;exitDx=0;exitDy=0;entryX=0.5;entryY=1;entryDx=0;entryDy=0;" parent="1" source="cp8nzbBQbhLiMNm4tQ7m-26" target="1ZfyY-yyabJH_yNaMhFH-7" edge="1">
          <mxGeometry relative="1" as="geometry">
            <mxPoint x="-630" y="240" as="sourcePoint" />
            <mxPoint x="-560" y="50" as="targetPoint" />
            <Array as="points">
              <mxPoint x="-560" y="360" />
            </Array>
          </mxGeometry>
        </mxCell>
        <mxCell id="1ZfyY-yyabJH_yNaMhFH-7" value="pays" style="shape=rhombus;perimeter=rhombusPerimeter;whiteSpace=wrap;html=1;align=center;fillColor=#d5e8d4;strokeColor=#82b366;" parent="1" vertex="1">
          <mxGeometry x="-620" y="-30" width="120" height="60" as="geometry" />
        </mxCell>
        <mxCell id="1ZfyY-yyabJH_yNaMhFH-10" value="" style="shape=flexArrow;endArrow=classic;html=1;rounded=0;entryX=0;entryY=0.5;entryDx=0;entryDy=0;edgeStyle=orthogonalEdgeStyle;exitX=0.5;exitY=0;exitDx=0;exitDy=0;" parent="1" source="cp8nzbBQbhLiMNm4tQ7m-26" target="1ZfyY-yyabJH_yNaMhFH-1" edge="1">
          <mxGeometry width="50" height="50" relative="1" as="geometry">
            <mxPoint x="-700" y="-240" as="sourcePoint" />
            <mxPoint x="-330" y="-240" as="targetPoint" />
            <Array as="points">
              <mxPoint x="-700" y="-160" />
            </Array>
          </mxGeometry>
        </mxCell>
        <mxCell id="1ZfyY-yyabJH_yNaMhFH-21" value="" style="shape=flexArrow;endArrow=classic;html=1;rounded=0;entryX=1;entryY=0.5;entryDx=0;entryDy=0;edgeStyle=orthogonalEdgeStyle;exitX=0.75;exitY=0;exitDx=0;exitDy=0;" parent="1" source="cp8nzbBQbhLiMNm4tQ7m-6" target="1ZfyY-yyabJH_yNaMhFH-1" edge="1">
          <mxGeometry width="50" height="50" relative="1" as="geometry">
            <mxPoint x="190" y="340" as="sourcePoint" />
            <mxPoint x="-187.5" y="-240" as="targetPoint" />
            <Array as="points">
              <mxPoint x="190" y="385" />
              <mxPoint x="190" y="320" />
              <mxPoint x="222" y="320" />
              <mxPoint x="222" y="-160" />
            </Array>
          </mxGeometry>
        </mxCell>
        <mxCell id="1ZfyY-yyabJH_yNaMhFH-23" value="" style="shape=flexArrow;endArrow=classic;html=1;rounded=0;entryX=1;entryY=0.5;entryDx=0;entryDy=0;exitX=0.25;exitY=0;exitDx=0;exitDy=0;" parent="1" source="NQ980aSsCJvNuDoRZY3Y-1" target="1ZfyY-yyabJH_yNaMhFH-7" edge="1">
          <mxGeometry width="50" height="50" relative="1" as="geometry">
            <mxPoint x="-300" y="10" as="sourcePoint" />
            <mxPoint x="-440" y="-10" as="targetPoint" />
            <Array as="points">
              <mxPoint x="-280" y="20" />
            </Array>
          </mxGeometry>
        </mxCell>
        <mxCell id="0L8P7IHvLGYGfYm_Wr2v-1" value="MarketPrice" style="ellipse;whiteSpace=wrap;html=1;fillColor=#dae8fc;strokeColor=#6c8ebf;" parent="1" vertex="1">
          <mxGeometry x="581.5" y="390" width="88.5" height="40" as="geometry" />
        </mxCell>
        <mxCell id="0L8P7IHvLGYGfYm_Wr2v-3" value="CreationYear" style="ellipse;whiteSpace=wrap;html=1;align=center;fillColor=#dae8fc;strokeColor=#6c8ebf;" parent="1" vertex="1">
          <mxGeometry x="560" y="440" width="100" height="30" as="geometry" />
        </mxCell>
        <mxCell id="0L8P7IHvLGYGfYm_Wr2v-5" value="Whitepaper" style="ellipse;whiteSpace=wrap;html=1;align=center;fillColor=#dae8fc;strokeColor=#6c8ebf;" parent="1" vertex="1">
          <mxGeometry x="360" y="432.5" width="100" height="27.5" as="geometry" />
        </mxCell>
        <mxCell id="0L8P7IHvLGYGfYm_Wr2v-6" value="" style="endArrow=none;html=1;rounded=0;startSize=14;endSize=14;sourcePerimeterSpacing=8;targetPerimeterSpacing=8;curved=1;exitX=0.75;exitY=1;exitDx=0;exitDy=0;entryX=0.5;entryY=0;entryDx=0;entryDy=0;" parent="1" source="cp8nzbBQbhLiMNm4tQ7m-74" target="0L8P7IHvLGYGfYm_Wr2v-3" edge="1">
          <mxGeometry relative="1" as="geometry">
            <mxPoint x="660" y="450" as="sourcePoint" />
            <mxPoint x="820" y="450" as="targetPoint" />
          </mxGeometry>
        </mxCell>
        <mxCell id="0L8P7IHvLGYGfYm_Wr2v-7" value="" style="endArrow=none;html=1;rounded=0;startSize=14;endSize=14;sourcePerimeterSpacing=8;targetPerimeterSpacing=8;curved=1;entryX=0;entryY=0.75;entryDx=0;entryDy=0;exitX=0.5;exitY=0;exitDx=0;exitDy=0;" parent="1" source="0L8P7IHvLGYGfYm_Wr2v-5" target="cp8nzbBQbhLiMNm4tQ7m-74" edge="1">
          <mxGeometry relative="1" as="geometry">
            <mxPoint x="300" y="470" as="sourcePoint" />
            <mxPoint x="460" y="470" as="targetPoint" />
          </mxGeometry>
        </mxCell>
        <mxCell id="0L8P7IHvLGYGfYm_Wr2v-10" value="NetworkExplorerLink" style="ellipse;whiteSpace=wrap;html=1;align=center;fillColor=#dae8fc;strokeColor=#6c8ebf;" parent="1" vertex="1">
          <mxGeometry x="70" y="285" width="130" height="30" as="geometry" />
        </mxCell>
        <mxCell id="0L8P7IHvLGYGfYm_Wr2v-11" value="" style="endArrow=none;html=1;rounded=0;startSize=14;endSize=14;sourcePerimeterSpacing=8;targetPerimeterSpacing=8;curved=1;exitX=0.5;exitY=1;exitDx=0;exitDy=0;entryX=0.5;entryY=0;entryDx=0;entryDy=0;" parent="1" source="0L8P7IHvLGYGfYm_Wr2v-10" target="cp8nzbBQbhLiMNm4tQ7m-6" edge="1">
          <mxGeometry relative="1" as="geometry">
            <mxPoint x="60" y="440" as="sourcePoint" />
            <mxPoint x="220" y="440" as="targetPoint" />
          </mxGeometry>
        </mxCell>
        <mxCell id="0L8P7IHvLGYGfYm_Wr2v-12" value="" style="endArrow=none;html=1;rounded=0;startSize=14;endSize=14;sourcePerimeterSpacing=8;targetPerimeterSpacing=8;curved=1;entryX=0.185;entryY=1.012;entryDx=0;entryDy=0;entryPerimeter=0;exitX=0.5;exitY=0;exitDx=0;exitDy=0;" parent="1" source="0L8P7IHvLGYGfYm_Wr2v-13" target="cp8nzbBQbhLiMNm4tQ7m-6" edge="1">
          <mxGeometry relative="1" as="geometry">
            <mxPoint x="90" y="450" as="sourcePoint" />
            <mxPoint x="190" y="470" as="targetPoint" />
          </mxGeometry>
        </mxCell>
        <mxCell id="0L8P7IHvLGYGfYm_Wr2v-13" value="PublicKey" style="ellipse;whiteSpace=wrap;html=1;align=center;fillColor=#dae8fc;strokeColor=#6c8ebf;" parent="1" vertex="1">
          <mxGeometry x="38.75" y="432.5" width="100" height="30" as="geometry" />
        </mxCell>
        <mxCell id="0L8P7IHvLGYGfYm_Wr2v-14" value="Status" style="ellipse;whiteSpace=wrap;html=1;align=center;fillColor=#dae8fc;strokeColor=#6c8ebf;" parent="1" vertex="1">
          <mxGeometry x="-430" y="570" width="100" height="30" as="geometry" />
        </mxCell>
        <mxCell id="0L8P7IHvLGYGfYm_Wr2v-15" value="" style="endArrow=none;html=1;rounded=0;startSize=14;endSize=14;sourcePerimeterSpacing=8;targetPerimeterSpacing=8;curved=1;exitX=0.5;exitY=1;exitDx=0;exitDy=0;entryX=0.5;entryY=0;entryDx=0;entryDy=0;" parent="1" source="0L8P7IHvLGYGfYm_Wr2v-14" target="cp8nzbBQbhLiMNm4tQ7m-8" edge="1">
          <mxGeometry relative="1" as="geometry">
            <mxPoint x="-280" y="660" as="sourcePoint" />
            <mxPoint x="-120" y="660" as="targetPoint" />
          </mxGeometry>
        </mxCell>
        <mxCell id="0L8P7IHvLGYGfYm_Wr2v-16" value="ATM Availability" style="ellipse;whiteSpace=wrap;html=1;align=center;fillColor=#dae8fc;strokeColor=#6c8ebf;" parent="1" vertex="1">
          <mxGeometry x="-570" y="1373" width="100" height="30" as="geometry" />
        </mxCell>
        <mxCell id="0L8P7IHvLGYGfYm_Wr2v-17" value="" style="endArrow=none;html=1;rounded=0;startSize=14;endSize=14;sourcePerimeterSpacing=8;targetPerimeterSpacing=8;curved=1;exitX=0.5;exitY=0;exitDx=0;exitDy=0;entryX=0;entryY=1;entryDx=0;entryDy=0;" parent="1" source="0L8P7IHvLGYGfYm_Wr2v-16" target="cp8nzbBQbhLiMNm4tQ7m-15" edge="1">
          <mxGeometry relative="1" as="geometry">
            <mxPoint x="-530" y="1323" as="sourcePoint" />
            <mxPoint x="-370" y="1323" as="targetPoint" />
          </mxGeometry>
        </mxCell>
        <mxCell id="0L8P7IHvLGYGfYm_Wr2v-18" value="Languages spoken" style="ellipse;whiteSpace=wrap;html=1;align=center;fillColor=#dae8fc;strokeColor=#6c8ebf;" parent="1" vertex="1">
          <mxGeometry x="-450" y="1221.75" width="100" height="37.5" as="geometry" />
        </mxCell>
        <mxCell id="0L8P7IHvLGYGfYm_Wr2v-19" value="" style="endArrow=none;html=1;rounded=0;startSize=14;endSize=14;sourcePerimeterSpacing=8;targetPerimeterSpacing=8;curved=1;exitX=0.5;exitY=1;exitDx=0;exitDy=0;entryX=0.25;entryY=0;entryDx=0;entryDy=0;" parent="1" source="0L8P7IHvLGYGfYm_Wr2v-18" target="cp8nzbBQbhLiMNm4tQ7m-15" edge="1">
          <mxGeometry relative="1" as="geometry">
            <mxPoint x="-510" y="1483" as="sourcePoint" />
            <mxPoint x="-350" y="1483" as="targetPoint" />
          </mxGeometry>
        </mxCell>
        <mxCell id="0L8P7IHvLGYGfYm_Wr2v-20" value="ATM" style="rounded=1;arcSize=10;whiteSpace=wrap;html=1;align=center;fillColor=#ffe6cc;strokeColor=#d79b00;" parent="1" vertex="1">
          <mxGeometry x="-510" y="920" width="100" height="40" as="geometry" />
        </mxCell>
        <mxCell id="0L8P7IHvLGYGfYm_Wr2v-25" value="refilled" style="shape=rhombus;perimeter=rhombusPerimeter;whiteSpace=wrap;html=1;align=center;fillColor=#d5e8d4;strokeColor=#82b366;" parent="1" vertex="1">
          <mxGeometry x="-250" y="1118.25" width="120" height="60" as="geometry" />
        </mxCell>
        <mxCell id="0L8P7IHvLGYGfYm_Wr2v-28" value="" style="endArrow=none;html=1;rounded=0;sourcePerimeterSpacing=8;targetPerimeterSpacing=8;curved=1;exitX=1;exitY=1;exitDx=0;exitDy=0;entryX=0;entryY=0;entryDx=0;entryDy=0;shape=link;" parent="1" source="0L8P7IHvLGYGfYm_Wr2v-20" target="0L8P7IHvLGYGfYm_Wr2v-25" edge="1">
          <mxGeometry relative="1" as="geometry">
            <mxPoint x="-292" y="885" as="sourcePoint" />
            <mxPoint x="-132" y="885" as="targetPoint" />
          </mxGeometry>
        </mxCell>
        <mxCell id="0L8P7IHvLGYGfYm_Wr2v-34" value="ATM ID" style="ellipse;whiteSpace=wrap;html=1;align=center;fontStyle=4;fillColor=#dae8fc;strokeColor=#6c8ebf;" parent="1" vertex="1">
          <mxGeometry x="-360" y="950" width="100" height="30" as="geometry" />
        </mxCell>
        <mxCell id="0L8P7IHvLGYGfYm_Wr2v-35" value="Cash Balance" style="ellipse;whiteSpace=wrap;html=1;align=center;fillColor=#dae8fc;strokeColor=#6c8ebf;" parent="1" vertex="1">
          <mxGeometry x="-638" y="960" width="100" height="30" as="geometry" />
        </mxCell>
        <mxCell id="0L8P7IHvLGYGfYm_Wr2v-36" value="" style="endArrow=none;html=1;rounded=0;startSize=14;endSize=14;sourcePerimeterSpacing=8;targetPerimeterSpacing=8;curved=1;exitX=1;exitY=0.75;exitDx=0;exitDy=0;entryX=0;entryY=0.5;entryDx=0;entryDy=0;" parent="1" source="0L8P7IHvLGYGfYm_Wr2v-20" target="0L8P7IHvLGYGfYm_Wr2v-34" edge="1">
          <mxGeometry relative="1" as="geometry">
            <mxPoint x="-312" y="965" as="sourcePoint" />
            <mxPoint x="-152" y="965" as="targetPoint" />
          </mxGeometry>
        </mxCell>
        <mxCell id="0L8P7IHvLGYGfYm_Wr2v-37" value="" style="endArrow=none;html=1;rounded=0;startSize=14;endSize=14;sourcePerimeterSpacing=8;targetPerimeterSpacing=8;curved=1;exitX=1;exitY=0.5;exitDx=0;exitDy=0;entryX=0;entryY=1;entryDx=0;entryDy=0;" parent="1" source="0L8P7IHvLGYGfYm_Wr2v-35" target="0L8P7IHvLGYGfYm_Wr2v-20" edge="1">
          <mxGeometry relative="1" as="geometry">
            <mxPoint x="-551.39" y="975" as="sourcePoint" />
            <mxPoint x="-296.39" y="1030" as="targetPoint" />
          </mxGeometry>
        </mxCell>
        <mxCell id="0L8P7IHvLGYGfYm_Wr2v-38" value="Max amount" style="ellipse;whiteSpace=wrap;html=1;align=center;fillColor=#dae8fc;strokeColor=#6c8ebf;" parent="1" vertex="1">
          <mxGeometry x="-486.39" y="1005" width="100" height="25" as="geometry" />
        </mxCell>
        <mxCell id="0L8P7IHvLGYGfYm_Wr2v-39" value="" style="endArrow=none;html=1;rounded=0;startSize=14;endSize=14;sourcePerimeterSpacing=8;targetPerimeterSpacing=8;curved=1;entryX=0.5;entryY=1;entryDx=0;entryDy=0;exitX=0.5;exitY=0;exitDx=0;exitDy=0;" parent="1" source="0L8P7IHvLGYGfYm_Wr2v-38" target="0L8P7IHvLGYGfYm_Wr2v-20" edge="1">
          <mxGeometry relative="1" as="geometry">
            <mxPoint x="-476.39" y="990" as="sourcePoint" />
            <mxPoint x="-316.39" y="990" as="targetPoint" />
          </mxGeometry>
        </mxCell>
        <mxCell id="0L8P7IHvLGYGfYm_Wr2v-43" value="" style="endArrow=none;html=1;rounded=0;sourcePerimeterSpacing=8;targetPerimeterSpacing=8;shape=link;exitX=0.5;exitY=1;exitDx=0;exitDy=0;" parent="1" source="7LxiuOPRLPFjIO05TcZI-311" edge="1">
          <mxGeometry relative="1" as="geometry">
            <mxPoint x="-330" y="830" as="sourcePoint" />
            <mxPoint x="-410" y="940" as="targetPoint" />
            <Array as="points">
              <mxPoint x="-330" y="940" />
            </Array>
          </mxGeometry>
        </mxCell>
        <mxCell id="0L8P7IHvLGYGfYm_Wr2v-45" value="Card-Password" style="ellipse;whiteSpace=wrap;html=1;align=center;fillColor=#dae8fc;strokeColor=#6c8ebf;" parent="1" vertex="1">
          <mxGeometry x="-530" y="132.5" width="100" height="30" as="geometry" />
        </mxCell>
        <mxCell id="0L8P7IHvLGYGfYm_Wr2v-46" value="" style="endArrow=none;html=1;rounded=0;startSize=14;endSize=14;sourcePerimeterSpacing=8;targetPerimeterSpacing=8;curved=1;exitX=1;exitY=0;exitDx=0;exitDy=0;entryX=0;entryY=0.5;entryDx=0;entryDy=0;" parent="1" source="0L8P7IHvLGYGfYm_Wr2v-45" target="cp8nzbBQbhLiMNm4tQ7m-91" edge="1">
          <mxGeometry relative="1" as="geometry">
            <mxPoint x="-390" y="180" as="sourcePoint" />
            <mxPoint x="-230" y="180" as="targetPoint" />
          </mxGeometry>
        </mxCell>
        <mxCell id="0L8P7IHvLGYGfYm_Wr2v-52" value="Confirmation Information" style="ellipse;whiteSpace=wrap;html=1;align=center;fillColor=#dae8fc;strokeColor=#6c8ebf;" parent="1" vertex="1">
          <mxGeometry x="-157.5" y="-230" width="100" height="40" as="geometry" />
        </mxCell>
        <mxCell id="0L8P7IHvLGYGfYm_Wr2v-53" value="" style="endArrow=none;html=1;rounded=0;startSize=14;endSize=14;sourcePerimeterSpacing=8;targetPerimeterSpacing=8;curved=1;exitX=1;exitY=0;exitDx=0;exitDy=0;entryX=0.5;entryY=1;entryDx=0;entryDy=0;" parent="1" source="1ZfyY-yyabJH_yNaMhFH-1" target="0L8P7IHvLGYGfYm_Wr2v-52" edge="1">
          <mxGeometry relative="1" as="geometry">
            <mxPoint x="-290" y="-170" as="sourcePoint" />
            <mxPoint x="-130" y="-170" as="targetPoint" />
          </mxGeometry>
        </mxCell>
        <mxCell id="0L8P7IHvLGYGfYm_Wr2v-54" value="cposition" style="ellipse;whiteSpace=wrap;html=1;align=center;fillColor=#dae8fc;strokeColor=#6c8ebf;" parent="1" vertex="1">
          <mxGeometry x="-410" y="510" width="100" height="30" as="geometry" />
        </mxCell>
        <mxCell id="0L8P7IHvLGYGfYm_Wr2v-55" value="" style="endArrow=none;html=1;rounded=0;startSize=14;endSize=14;sourcePerimeterSpacing=8;targetPerimeterSpacing=8;curved=1;exitX=0.5;exitY=1;exitDx=0;exitDy=0;entryX=0.5;entryY=0;entryDx=0;entryDy=0;" parent="1" source="cp8nzbBQbhLiMNm4tQ7m-1" target="0L8P7IHvLGYGfYm_Wr2v-54" edge="1">
          <mxGeometry relative="1" as="geometry">
            <mxPoint x="-280" y="550" as="sourcePoint" />
            <mxPoint x="-120" y="550" as="targetPoint" />
          </mxGeometry>
        </mxCell>
        <mxCell id="0L8P7IHvLGYGfYm_Wr2v-57" value="" style="endArrow=none;html=1;rounded=0;startSize=14;endSize=14;sourcePerimeterSpacing=8;targetPerimeterSpacing=8;curved=1;exitX=1;exitY=0.25;exitDx=0;exitDy=0;entryX=0;entryY=0.5;entryDx=0;entryDy=0;" parent="1" source="cp8nzbBQbhLiMNm4tQ7m-32" target="0L8P7IHvLGYGfYm_Wr2v-58" edge="1">
          <mxGeometry relative="1" as="geometry">
            <mxPoint x="160" y="1363" as="sourcePoint" />
            <mxPoint x="151" y="1284.25" as="targetPoint" />
          </mxGeometry>
        </mxCell>
        <mxCell id="0L8P7IHvLGYGfYm_Wr2v-58" value="Age" style="ellipse;whiteSpace=wrap;html=1;align=center;fillColor=#dae8fc;strokeColor=#6c8ebf;" parent="1" vertex="1">
          <mxGeometry x="160" y="1269" width="50" height="24" as="geometry" />
        </mxCell>
        <mxCell id="0L8P7IHvLGYGfYm_Wr2v-59" value="BirthDate" style="ellipse;whiteSpace=wrap;html=1;align=center;fillColor=#dae8fc;strokeColor=#6c8ebf;" parent="1" vertex="1">
          <mxGeometry x="-235" y="365" width="65" height="35" as="geometry" />
        </mxCell>
        <mxCell id="0L8P7IHvLGYGfYm_Wr2v-60" value="" style="endArrow=none;html=1;rounded=0;startSize=14;endSize=14;sourcePerimeterSpacing=8;targetPerimeterSpacing=8;curved=1;exitX=1;exitY=0.25;exitDx=0;exitDy=0;entryX=0;entryY=0.5;entryDx=0;entryDy=0;" parent="1" source="cp8nzbBQbhLiMNm4tQ7m-1" target="0L8P7IHvLGYGfYm_Wr2v-59" edge="1">
          <mxGeometry relative="1" as="geometry">
            <mxPoint x="-210" y="440" as="sourcePoint" />
            <mxPoint x="-50" y="440" as="targetPoint" />
          </mxGeometry>
        </mxCell>
        <mxCell id="23Ts9EbyOzGPqoDdhLCB-1" value="ATMLocation" style="ellipse;whiteSpace=wrap;html=1;fillColor=#e1d5e7;strokeColor=#9673a6;" parent="1" vertex="1">
          <mxGeometry x="-600" y="1000" width="90" height="30" as="geometry" />
        </mxCell>
        <mxCell id="23Ts9EbyOzGPqoDdhLCB-2" value="" style="endArrow=none;html=1;rounded=0;startSize=14;endSize=14;sourcePerimeterSpacing=8;targetPerimeterSpacing=8;curved=1;exitX=1;exitY=0;exitDx=0;exitDy=0;entryX=0.25;entryY=1;entryDx=0;entryDy=0;" parent="1" source="23Ts9EbyOzGPqoDdhLCB-1" target="0L8P7IHvLGYGfYm_Wr2v-20" edge="1">
          <mxGeometry relative="1" as="geometry">
            <mxPoint x="-486.39" y="1090" as="sourcePoint" />
            <mxPoint x="-326.39" y="1090" as="targetPoint" />
          </mxGeometry>
        </mxCell>
        <mxCell id="23Ts9EbyOzGPqoDdhLCB-3" value="Country" style="ellipse;whiteSpace=wrap;html=1;fillColor=#f5f5f5;strokeColor=#666666;fontColor=#333333;" parent="1" vertex="1">
          <mxGeometry x="-618" y="1040" width="60" height="20" as="geometry" />
        </mxCell>
        <mxCell id="23Ts9EbyOzGPqoDdhLCB-4" value="City" style="ellipse;whiteSpace=wrap;html=1;fillColor=#f5f5f5;strokeColor=#666666;fontColor=#333333;" parent="1" vertex="1">
          <mxGeometry x="-670" y="1005" width="60" height="20" as="geometry" />
        </mxCell>
        <mxCell id="23Ts9EbyOzGPqoDdhLCB-5" value="Street" style="ellipse;whiteSpace=wrap;html=1;fillColor=#f5f5f5;strokeColor=#666666;fontColor=#333333;" parent="1" vertex="1">
          <mxGeometry x="-560" y="1055" width="60" height="25" as="geometry" />
        </mxCell>
        <mxCell id="23Ts9EbyOzGPqoDdhLCB-6" value="" style="endArrow=none;html=1;rounded=0;startSize=14;endSize=14;sourcePerimeterSpacing=8;targetPerimeterSpacing=8;curved=1;exitX=1;exitY=0.5;exitDx=0;exitDy=0;entryX=0;entryY=0.5;entryDx=0;entryDy=0;" parent="1" source="23Ts9EbyOzGPqoDdhLCB-4" target="23Ts9EbyOzGPqoDdhLCB-1" edge="1">
          <mxGeometry relative="1" as="geometry">
            <mxPoint x="-552" y="1052.5" as="sourcePoint" />
            <mxPoint x="-362" y="1055" as="targetPoint" />
          </mxGeometry>
        </mxCell>
        <mxCell id="23Ts9EbyOzGPqoDdhLCB-7" value="" style="endArrow=none;html=1;rounded=0;startSize=14;endSize=14;sourcePerimeterSpacing=8;targetPerimeterSpacing=8;curved=1;exitX=0;exitY=1;exitDx=0;exitDy=0;entryX=0.5;entryY=0;entryDx=0;entryDy=0;" parent="1" source="23Ts9EbyOzGPqoDdhLCB-1" target="23Ts9EbyOzGPqoDdhLCB-3" edge="1">
          <mxGeometry relative="1" as="geometry">
            <mxPoint x="-616.39" y="1140" as="sourcePoint" />
            <mxPoint x="-597.6032034355964" y="1087.9289321881347" as="targetPoint" />
          </mxGeometry>
        </mxCell>
        <mxCell id="23Ts9EbyOzGPqoDdhLCB-9" value="" style="endArrow=none;html=1;rounded=0;startSize=14;endSize=14;sourcePerimeterSpacing=8;targetPerimeterSpacing=8;curved=1;exitX=0.5;exitY=1;exitDx=0;exitDy=0;entryX=0.312;entryY=0.036;entryDx=0;entryDy=0;entryPerimeter=0;" parent="1" source="23Ts9EbyOzGPqoDdhLCB-1" target="23Ts9EbyOzGPqoDdhLCB-5" edge="1">
          <mxGeometry relative="1" as="geometry">
            <mxPoint x="-466.39" y="1080" as="sourcePoint" />
            <mxPoint x="-306.39" y="1080" as="targetPoint" />
          </mxGeometry>
        </mxCell>
        <mxCell id="23Ts9EbyOzGPqoDdhLCB-10" value="Place" style="ellipse;whiteSpace=wrap;html=1;fillColor=#f5f5f5;strokeColor=#666666;fontColor=#333333;" parent="1" vertex="1">
          <mxGeometry x="-510" y="1030" width="60" height="25" as="geometry" />
        </mxCell>
        <mxCell id="23Ts9EbyOzGPqoDdhLCB-11" value="" style="endArrow=none;html=1;rounded=0;startSize=14;endSize=14;sourcePerimeterSpacing=8;targetPerimeterSpacing=8;curved=1;exitX=1;exitY=0.5;exitDx=0;exitDy=0;entryX=0;entryY=0.5;entryDx=0;entryDy=0;" parent="1" source="23Ts9EbyOzGPqoDdhLCB-1" target="23Ts9EbyOzGPqoDdhLCB-10" edge="1">
          <mxGeometry relative="1" as="geometry">
            <mxPoint x="-386.39" y="1090" as="sourcePoint" />
            <mxPoint x="-226.39" y="1090" as="targetPoint" />
          </mxGeometry>
        </mxCell>
        <mxCell id="23Ts9EbyOzGPqoDdhLCB-25" value="" style="endArrow=none;html=1;rounded=0;startSize=14;endSize=14;sourcePerimeterSpacing=8;targetPerimeterSpacing=8;curved=1;exitX=1;exitY=1;exitDx=0;exitDy=0;entryX=0.25;entryY=0;entryDx=0;entryDy=0;" parent="1" source="0L8P7IHvLGYGfYm_Wr2v-25" target="cp8nzbBQbhLiMNm4tQ7m-32" edge="1">
          <mxGeometry relative="1" as="geometry">
            <mxPoint x="-152" y="1205" as="sourcePoint" />
            <mxPoint x="9" y="1313" as="targetPoint" />
          </mxGeometry>
        </mxCell>
        <mxCell id="23Ts9EbyOzGPqoDdhLCB-26" value="" style="endArrow=none;html=1;rounded=0;startSize=14;endSize=14;sourcePerimeterSpacing=8;targetPerimeterSpacing=8;curved=1;exitX=0.75;exitY=0;exitDx=0;exitDy=0;entryX=0;entryY=1;entryDx=0;entryDy=0;" parent="1" source="cp8nzbBQbhLiMNm4tQ7m-15" target="0L8P7IHvLGYGfYm_Wr2v-25" edge="1">
          <mxGeometry relative="1" as="geometry">
            <mxPoint x="-734" y="1040" as="sourcePoint" />
            <mxPoint x="-400" y="1313" as="targetPoint" />
          </mxGeometry>
        </mxCell>
        <mxCell id="23Ts9EbyOzGPqoDdhLCB-35" value="" style="endArrow=none;html=1;rounded=0;sourcePerimeterSpacing=8;targetPerimeterSpacing=8;curved=1;exitX=1;exitY=0.5;exitDx=0;exitDy=0;entryX=0;entryY=0.5;entryDx=0;entryDy=0;shape=link;" parent="1" source="cp8nzbBQbhLiMNm4tQ7m-29" target="cp8nzbBQbhLiMNm4tQ7m-8" edge="1">
          <mxGeometry relative="1" as="geometry">
            <mxPoint x="-536.39" y="660" as="sourcePoint" />
            <mxPoint x="-486.39" y="868" as="targetPoint" />
          </mxGeometry>
        </mxCell>
        <mxCell id="7LxiuOPRLPFjIO05TcZI-311" value="Uses" style="shape=rhombus;perimeter=rhombusPerimeter;whiteSpace=wrap;html=1;align=center;fillColor=#d5e8d4;strokeColor=#82b366;" vertex="1" parent="1">
          <mxGeometry x="-372.5" y="780" width="90" height="40" as="geometry" />
        </mxCell>
        <mxCell id="7LxiuOPRLPFjIO05TcZI-313" value="" style="shape=flexArrow;endArrow=classic;html=1;rounded=0;exitX=0.75;exitY=1;exitDx=0;exitDy=0;entryX=0.5;entryY=0;entryDx=0;entryDy=0;" edge="1" parent="1" source="cp8nzbBQbhLiMNm4tQ7m-8" target="7LxiuOPRLPFjIO05TcZI-311">
          <mxGeometry width="50" height="50" relative="1" as="geometry">
            <mxPoint x="-290" y="750" as="sourcePoint" />
            <mxPoint x="135" y="750" as="targetPoint" />
          </mxGeometry>
        </mxCell>
        <mxCell id="7LxiuOPRLPFjIO05TcZI-314" value="#Card-Password" style="ellipse;whiteSpace=wrap;html=1;align=center;fillColor=#dae8fc;strokeColor=#6c8ebf;" vertex="1" parent="1">
          <mxGeometry x="-240" y="785" width="100" height="30" as="geometry" />
        </mxCell>
        <mxCell id="7LxiuOPRLPFjIO05TcZI-315" value="" style="endArrow=none;html=1;rounded=0;startSize=14;endSize=14;sourcePerimeterSpacing=8;targetPerimeterSpacing=8;curved=1;exitX=1;exitY=0.5;exitDx=0;exitDy=0;entryX=0;entryY=0.5;entryDx=0;entryDy=0;" edge="1" parent="1" source="7LxiuOPRLPFjIO05TcZI-311" target="7LxiuOPRLPFjIO05TcZI-314">
          <mxGeometry relative="1" as="geometry">
            <mxPoint x="-190" y="810" as="sourcePoint" />
            <mxPoint x="-30" y="810" as="targetPoint" />
          </mxGeometry>
        </mxCell>
        <mxCell id="7LxiuOPRLPFjIO05TcZI-317" value="Disjoint" style="text;html=1;align=center;verticalAlign=middle;resizable=0;points=[];autosize=1;strokeColor=default;fillColor=none;strokeWidth=3;" vertex="1" parent="1">
          <mxGeometry x="38.75" y="52.5" width="60" height="30" as="geometry" />
        </mxCell>
      </root>
    </mxGraphModel>
  </diagram>
</mxfile>
